<?xml version="1.0" encoding="UTF-8"?>
<!DOCTYPE svg PUBLIC "-//W3C//DTD SVG 1.1//EN" "http://www.w3.org/Graphics/SVG/1.1/DTD/svg11.dtd">
<!-- Creator: CorelDRAW 2021 (64-Bit) -->
<svg xmlns="http://www.w3.org/2000/svg" xml:space="preserve" width="227.35mm" height="57.6606mm" version="1.1" style="shape-rendering:geometricPrecision; text-rendering:geometricPrecision; image-rendering:optimizeQuality; fill-rule:evenodd; clip-rule:evenodd"
viewBox="0 0 19542.11 4956.28"
 xmlns:xlink="http://www.w3.org/1999/xlink"
 xmlns:xodm="http://www.corel.com/coreldraw/odm/2003">
 <defs>
  <style type="text/css">
   <![CDATA[
    .fil0 {fill:black;fill-rule:nonzero}
    .fil1 {fill:white;fill-rule:nonzero}
   ]]>
  </style>
 </defs>
 <g id="Layer_x0020_1">
  <metadata id="CorelCorpID_0Corel-Layer"/>
  <g id="_2611917440480">
   <polygon class="fil0" points="17944.83,1881.04 18047.72,1881.04 18084.4,1780.62 17944.83,1780.62 17944.83,1687.03 18117.24,1687.03 18154.17,1586.6 17801.17,1586.6 17801.17,2047.97 17944.83,2047.97 "/>
   <polygon class="fil0" points="18342.72,1586.6 18199.32,1586.6 18199.32,2047.97 18342.72,2047.97 "/>
   <polygon class="fil0" points="18585.16,1881.04 18688.05,1881.04 18724.72,1780.62 18585.16,1780.62 18585.16,1687.03 18758.66,1687.03 18795.6,1586.6 18441.51,1586.6 18441.51,2047.97 18585.16,2047.97 "/>
   <path class="fil0" d="M18862.91 2047.97l17.52 -62.11 162.54 0 18.88 62.11 144.76 0 -168.02 -461.37 -149.13 0 -168.03 461.37 141.48 0zm98.51 -342.6l0 0 57.2 191.55 -113.02 0 55.83 -191.55z"/>
   <path class="fil0" d="M19157.08 1704.82c6.45,6.21 13.96,11.23 22.17,14.78 8.55,4.02 17.92,5.99 27.37,5.75 9.43,0.17 18.79,-1.8 27.36,-5.75 16.75,-6.98 30.11,-20.23 37.22,-36.94 3.81,-8.61 5.67,-17.95 5.48,-27.37 0.09,-9.4 -1.77,-18.72 -5.48,-27.37 -3.73,-8.18 -8.82,-15.68 -15.05,-22.16 -6.46,-6.27 -13.96,-11.36 -22.17,-15.05 -8.6,-3.84 -17.95,-5.72 -27.36,-5.48 -9.4,-0.09 -18.73,1.78 -27.37,5.48 -8.02,4.02 -15.46,9.08 -22.17,15.05 -6.27,6.4 -11.28,13.92 -14.78,22.16 -3.9,8.59 -5.86,17.94 -5.75,27.37 0.01,9.43 1.97,18.74 5.75,27.37 3.7,8.14 8.68,15.63 14.78,22.16zm0 -71.69l0 0c2.86,-6.36 6.64,-12.27 11.23,-17.52 4.59,-5.15 10.3,-9.17 16.69,-11.77 6.49,-2.72 13.48,-4.01 20.52,-3.83 7.02,-0.05 13.99,1.25 20.53,3.83 6.19,2.81 11.77,6.82 16.42,11.77 4.94,4.98 8.77,10.95 11.22,17.52 2.66,7.07 3.96,14.6 3.83,22.16 0.59,14.81 -4.83,29.23 -15.05,39.95 -4.55,5.08 -10.15,9.09 -16.42,11.77 -13.2,5.11 -27.84,5.11 -41.04,0 -6.32,-2.73 -12,-6.74 -16.69,-11.77 -4.82,-5.17 -8.64,-11.21 -11.23,-17.78 -2.71,-7.07 -4.01,-14.6 -3.83,-22.17 -0.08,-7.56 1.22,-15.07 3.83,-22.16z"/>
   <path class="fil0" d="M19192.66 1661.04l9.03 0 20.52 33.65 14.78 0 -21.07 -34.2c5.6,-0.21 10.96,-2.45 15.05,-6.29 3.75,-3.99 5.72,-9.32 5.48,-14.78 0.86,-6.76 -1.83,-13.5 -7.12,-17.79 -6.52,-3.89 -14.04,-5.78 -21.62,-5.48l-29.55 0 0 78 14.5 0 0 -33.11zm0 -33.39l0 0 13.41 0c1.81,-0.28 3.66,-0.28 5.48,0 1.77,0.03 3.48,0.61 4.93,1.64 1.62,0.61 2.98,1.77 3.83,3.28 1.25,1.66 1.92,3.68 1.92,5.74 0.44,1.99 0.44,4.04 0,6.03 -0.8,1.36 -1.93,2.48 -3.28,3.27l-4.93 1.65 -6.02 0 -12.86 0 0 -22.71 -2.47 1.09z"/>
   <path class="fil0" d="M17953.04 2863.98c6.92,7.38 15.44,13.09 24.9,16.69 11.24,3.93 23.11,5.78 35.03,5.48 11.65,0.32 23.25,-1.54 34.21,-5.48 9.64,-3.72 18.39,-9.41 25.72,-16.69 7.04,-7.9 12.27,-17.23 15.33,-27.37 3.5,-11.16 5.25,-22.78 5.2,-34.48 0.04,-11.78 -1.7,-23.5 -5.2,-34.75 -2.72,-10.27 -7.99,-19.68 -15.33,-27.37 -7.04,-7.31 -15.65,-12.92 -25.18,-16.41 -11.09,-4.17 -22.91,-6.12 -34.75,-5.75 -11.94,-0.37 -23.84,1.58 -35.03,5.75 -9.44,3.5 -17.96,9.11 -24.9,16.41 -6.88,8.05 -12.18,17.34 -15.6,27.37 -6.56,22.61 -6.56,46.61 0,69.23 3.25,10.11 8.57,19.43 15.6,27.37zm27.37 -80.45l0 0c1.18,-5.65 3.4,-11.04 6.57,-15.88 2.87,-4.51 6.7,-8.34 11.22,-11.22 5.09,-2.82 10.87,-4.14 16.69,-3.83 5.78,0.01 11.48,1.32 16.69,3.83 4.5,2.81 8.24,6.66 10.94,11.22 2.93,4.95 5.15,10.3 6.57,15.88 3.28,12.74 3.28,26.11 0,38.86 -1.25,5.89 -3.47,11.53 -6.57,16.69 -2.83,4.61 -6.55,8.61 -10.94,11.77 -5.06,2.95 -10.84,4.46 -16.69,4.38 -5.87,0.15 -11.66,-1.37 -16.69,-4.38 -4.54,-3.08 -8.36,-7.1 -11.22,-11.77 -2.94,-5.24 -5.14,-10.86 -6.57,-16.69 -1.58,-6.35 -2.32,-12.88 -2.19,-19.43 -0.07,-6.53 0.67,-13.06 2.19,-19.43z"/>
   <polygon class="fil0" points="18171.96,2819.09 18233.54,2819.09 18233.54,2788.72 18171.96,2788.72 18171.96,2753.7 18236.27,2753.7 18236.27,2724.41 18128.18,2724.41 18128.18,2885.05 18171.96,2885.05 "/>
   <polygon class="fil0" points="18310.16,2819.09 18372.27,2819.09 18372.27,2788.72 18310.16,2788.72 18310.16,2753.7 18375,2753.7 18375,2724.41 18267.46,2724.41 18267.46,2885.05 18310.16,2885.05 "/>
   <polygon class="fil0" points="18452.45,2724.41 18409.76,2724.41 18409.76,2885.05 18452.45,2885.05 "/>
   <path class="fil0" d="M18520.31 2867.8c8.82,6.76 18.99,11.52 29.83,13.96 10.72,2.82 21.76,4.29 32.84,4.38 9.17,0.26 18.34,-0.48 27.36,-2.2 7.12,0 13.68,-2.72 20.53,-4.38l-2.19 -33.93 -18.88 6.29c-6.92,1.56 -13.99,2.29 -21.08,2.19 -7.37,0.13 -14.69,-1.07 -21.62,-3.57 -6.27,-1.87 -12,-5.25 -16.69,-9.84 -10.17,-9.64 -15.65,-23.23 -15.05,-37.22 -0.05,-7.15 1.07,-14.27 3.29,-21.07 2.41,-6.02 5.83,-11.57 10.12,-16.42 4.36,-4.79 9.68,-8.61 15.6,-11.23 6.49,-2.71 13.49,-4.01 20.53,-3.83 7.1,0.09 14.17,1.01 21.07,2.74 7.17,1.83 14.07,4.59 20.53,8.22l3.27 -34.76c-7.93,-2.19 -15.59,-4.65 -23.25,-6.29 -8.11,-1.56 -16.37,-2.3 -24.63,-2.19 -12.33,-0.17 -24.62,1.58 -36.4,5.2 -10.73,3.21 -20.75,8.41 -29.55,15.33 -8.11,7.31 -14.71,16.15 -19.43,25.99 -4.56,11.68 -6.79,24.14 -6.58,36.67 -0.4,13.45 2.52,26.8 8.49,38.86 4.74,10.82 12.3,20.17 21.88,27.08z"/>
   <polygon class="fil0" points="18705.84,2724.41 18664.52,2724.41 18664.52,2885.05 18707.21,2885.05 "/>
   <path class="fil0" d="M18792.87 2849.47l60.47 0 12.32 34.48 47.06 0 -62.12 -159.53 -52.54 0 -61.02 160.63 43.24 0 12.59 -35.58zm30.64 -93.04l0 0 19.43 62.67 -41.6 0 22.17 -62.67z"/>
   <polygon class="fil0" points="19049,2851.94 18983.05,2851.94 18983.05,2724.41 18940.35,2724.41 18940.35,2885.05 19049.82,2885.05 "/>
   <polygon class="fil0" points="18041.71,3124.48 17975.75,3124.48 17975.75,2995.32 17932.52,2995.32 17932.52,3156.23 18041.97,3156.23 "/>
   <polygon class="fil0" points="18117.24,2995.32 18074.54,2995.32 18074.54,3156.23 18117.24,3156.23 "/>
   <path class="fil0" d="M18181 3013.66c-8.33,7.12 -14.96,16 -19.43,25.99 -4.68,11.66 -7.01,24.11 -6.84,36.67 -0.29,13.44 2.61,26.77 8.48,38.86 5.13,10.05 12.54,18.76 21.62,25.45 8.91,6.61 19.06,11.36 29.84,13.95 10.73,2.78 21.76,4.25 32.84,4.38 9.18,0.27 18.35,-0.46 27.37,-2.2 7.11,0 13.95,-2.72 20.53,-4.37l-2.2 -33.94c-6.15,2.41 -12.46,4.43 -18.88,6.03 -6.91,1.56 -13.99,2.3 -21.07,2.18 -7.34,0.06 -14.64,-1.05 -21.62,-3.28 -6.26,-1.95 -11.97,-5.33 -16.69,-9.85 -4.68,-4.61 -8.41,-10.09 -10.95,-16.15 -2.72,-6.68 -4.04,-13.85 -3.83,-21.07 -0.07,-7.15 1.04,-14.27 3.27,-21.07 2.27,-6.11 5.6,-11.76 9.85,-16.69 4.53,-4.53 9.8,-8.23 15.6,-10.94 6.5,-2.68 13.5,-3.99 20.53,-3.83 7.11,0.07 14.18,0.99 21.07,2.73 7.18,1.83 14.07,4.59 20.53,8.22l3.28 -35.04c-7.66,-2.18 -15.59,-4.38 -23.26,-6.02 -8.03,-1.55 -16.18,-2.29 -24.36,-2.18 -12.39,-0.13 -24.74,1.52 -36.66,4.93 -10.5,4.21 -20.29,10.02 -29,17.23z"/>
   <polygon class="fil0" points="18367.07,3089.73 18433.84,3089.73 18433.84,3059.08 18367.07,3059.08 18367.07,3025.43 18437.67,3025.43 18437.67,2995.32 18324.38,2995.32 18324.38,3156.23 18439.86,3156.23 18439.86,3125.58 18367.07,3125.58 "/>
   <polygon class="fil0" points="18516.21,3046.5 18570.93,3155.95 18625.67,3155.95 18625.67,2995.32 18586.26,2995.32 18586.26,3104.78 18531.53,2995.32 18476.8,2995.32 18476.8,3156.23 18515.94,3156.23 "/>
   <path class="fil0" d="M18682.59 3080.15c5.78,3.49 11.93,6.33 18.33,8.49 6.58,1.64 12.87,3.83 18.34,5.48 4.91,1.58 9.6,3.78 13.95,6.56 3.69,2.76 5.74,7.18 5.47,11.77 0.3,2.75 -0.49,5.49 -2.18,7.67 -1.52,2.26 -3.72,3.99 -6.29,4.93 -2.65,1.05 -5.4,1.78 -8.21,2.18 -3.28,0.28 -6.58,0.28 -9.85,0 -8.29,-0.01 -16.55,-0.92 -24.63,-2.73 -6.7,-1.69 -13.14,-4.27 -19.16,-7.66l-4.1 35.58c7.78,2.3 15.74,3.95 23.8,4.93 8.17,1.05 16.39,1.59 24.63,1.63 9.17,0.2 18.34,-0.54 27.37,-2.19 8.01,-1.44 15.7,-4.32 22.71,-8.48 6.47,-4.06 11.99,-9.47 16.14,-15.88 4.36,-8.44 6.42,-17.87 6.03,-27.36 0.37,-8.11 -1.53,-16.17 -5.48,-23.26 -3.72,-5.42 -8.46,-10.07 -13.95,-13.68 -5.79,-3.48 -11.94,-6.33 -18.33,-8.48 -6.58,-1.64 -12.59,-3.83 -18.33,-5.48 -4.81,-1.37 -9.42,-3.4 -13.68,-6.02 -3.81,-1.88 -6.08,-5.9 -5.74,-10.13 -0.07,-3.02 1.01,-5.95 3.01,-8.21 1.94,-1.93 4.27,-3.41 6.84,-4.38 2.97,-1.13 6.13,-1.68 9.3,-1.65l9.03 0c6.15,0.02 12.28,0.57 18.33,1.65 5.9,0.99 11.6,2.83 16.97,5.48l1.09 -32.84c-6.19,-1.87 -12.5,-3.33 -18.88,-4.38 -7.52,-1.1 -15.11,-1.65 -22.72,-1.64 -8.26,-0.09 -16.5,0.64 -24.63,2.18 -7.8,1.32 -15.3,4.01 -22.16,7.93 -6.46,3.73 -12.04,8.76 -16.42,14.78 -4.78,7 -7.18,15.34 -6.84,23.81 -0.64,8.17 1.37,16.33 5.74,23.26 3.11,6.71 8.17,12.34 14.51,16.14z"/>
   <polygon class="fil0" points="18932.15,3025.43 18932.15,2995.32 18819.13,2995.32 18819.13,3156.23 18934.89,3156.23 18934.89,3125.58 18861.82,3125.58 18861.82,3089.73 18928.32,3089.73 18928.32,3059.08 18861.82,3059.08 18861.82,3025.43 "/>
   <path class="fil0" d="M18972.1 2995.32l0 160.91 58.29 0c12.62,0.03 25.21,-1.44 37.49,-4.38 10.89,-2.5 21.15,-7.25 30.1,-13.95 8.55,-6.58 15.4,-15.13 19.97,-24.9 5.14,-11.9 7.56,-24.81 7.13,-37.77 0.49,-13.31 -1.94,-26.57 -7.13,-38.85 -4.2,-9.7 -10.9,-18.1 -19.42,-24.36 -9.03,-6.33 -19.29,-10.72 -30.11,-12.86 -12.52,-2.47 -25.26,-3.76 -38.04,-3.83l-58.28 0zm96.31 44.34l0 0c9.52,9.75 14.39,23.09 13.42,36.67 0.89,13.46 -3.76,26.71 -12.87,36.67 -10.28,8.66 -23.53,12.98 -36.94,12.04l-16.69 0 0 -96.87 16.69 0c13.19,-1.28 26.33,2.87 36.39,11.49z"/>
   <path class="fil0" d="M17975.75 3372.41l16.69 0c16.85,1.06 33.52,-3.89 47.07,-13.95 21.53,-19.68 23.04,-53.09 3.38,-74.62 -1.07,-1.18 -2.2,-2.3 -3.38,-3.37 -16.49,-9.82 -35.59,-14.31 -54.73,-12.87l-50.89 0 0 160.9 42.69 0 -0.83 -56.09zm0 -73.89l0 0 11.23 0c3.46,-0.3 6.94,-0.3 10.39,0 2.97,0.42 5.78,1.55 8.21,3.28 2.54,1.56 4.54,3.86 5.75,6.57 1.67,3.21 2.42,6.8 2.19,10.41 0.28,3.69 -0.49,7.38 -2.19,10.66 -1.21,2.72 -3.21,5.01 -5.75,6.58 -2.5,1.72 -5.28,3.02 -8.21,3.83 -3.45,0.43 -6.94,0.43 -10.39,0l-11.23 0 0 -41.33z"/>
   <path class="fil0" d="M18200.97 3371.87c-1.27,-3.68 -2.82,-7.25 -4.65,-10.68 -1.38,-2.69 -3.23,-5.11 -5.47,-7.12 -2.36,-2.09 -5.17,-3.59 -8.22,-4.38 9.23,-1.56 17.54,-6.55 23.26,-13.96 5.53,-8.02 8.23,-17.65 7.67,-27.37 0.22,-6.15 -1.09,-12.27 -3.83,-17.78 -2.75,-4.98 -6.58,-9.28 -11.23,-12.58 -4.78,-3.76 -10.43,-6.29 -16.41,-7.39 -6.54,-1.58 -13.25,-2.31 -19.98,-2.18l-76.62 0 0 160.9 42.69 0 0 -63.76 9.03 0c3.36,-0.06 6.7,0.5 9.85,1.64 3,1.12 5.65,3.01 7.67,5.48 2.74,3.03 4.88,6.57 6.3,10.4 1.63,4.65 3.83,10.12 6.02,17.24l9.3 29 45.69 0 -15.59 -43.78c-2.19,-4.38 -3.83,-9.86 -5.48,-13.68zm-32.84 -44.89l0 0c-1.98,2.3 -4.39,4.15 -7.11,5.48 -3.21,1.37 -6.64,2.11 -10.13,2.19l-10.4 0 -11.22 0 0 -35.58 11.22 0c3.83,-0.28 7.68,-0.28 11.49,0 3.52,0.25 6.96,1.19 10.13,2.74 2.76,1.01 5.06,2.95 6.58,5.47 1.8,2.57 2.75,5.62 2.72,8.76 0.15,3.74 -1.01,7.42 -3.28,10.39l0 0.55z"/>
   <path class="fil0" d="M18386.49 3287.58c-6.87,-7.44 -15.4,-13.15 -24.89,-16.69 -22.69,-7.31 -47.1,-7.31 -69.79,0 -9.49,3.54 -18.02,9.26 -24.89,16.69 -6.86,7.56 -12.16,16.39 -15.6,25.99 -3.47,11.35 -5.13,23.17 -4.93,35.03 -0.18,11.6 1.48,23.14 4.93,34.21 2.71,10.33 8.08,19.77 15.6,27.36 6.89,7.36 15.43,12.99 24.89,16.42 11.11,4.17 22.91,6.12 34.76,5.75 11.76,0.4 23.48,-1.55 34.49,-5.75 19.61,-7.01 34.8,-22.81 41.04,-42.69 3.4,-11.07 5.07,-22.62 4.93,-34.2 0.14,-11.85 -1.52,-23.67 -4.93,-35.03 -3.07,-10.1 -8.41,-19.37 -15.6,-27.09zm-25.44 79.9l0 0c-1.33,5.86 -3.54,11.49 -6.57,16.69 -2.87,4.6 -6.7,8.52 -11.23,11.49 -10.25,5.86 -22.85,5.86 -33.1,0 -4.65,-2.82 -8.51,-6.77 -11.23,-11.49 -2.89,-5.27 -5.09,-10.87 -6.56,-16.69 -1.53,-6.36 -2.26,-12.88 -2.19,-19.43 -0.11,-6.53 0.62,-13.07 2.19,-19.42 1.18,-5.74 3.4,-11.22 6.56,-16.15 2.89,-4.44 6.72,-8.17 11.23,-10.94 10.16,-6.21 22.94,-6.21 33.1,0 4.51,2.77 8.35,6.51 11.23,10.94 2.93,5.05 5.14,10.49 6.57,16.15 1.57,6.35 2.31,12.88 2.19,19.42 0.28,7.13 0.28,13.14 -2.19,19.43z"/>
   <path class="fil0" d="M18569.57 3284.84c-8.97,-6.45 -19.25,-10.85 -30.1,-12.87 -12.53,-2.47 -25.27,-3.75 -38.04,-3.83l-58.29 0 0 160.91 57.19 0c12.64,0.07 25.25,-1.49 37.49,-4.65 10.92,-2.3 21.19,-6.97 30.09,-13.68 8.44,-6.7 15.27,-15.21 19.98,-24.9 5.13,-11.91 7.56,-24.81 7.12,-37.77 0.52,-13.31 -1.91,-26.58 -7.12,-38.85 -3.68,-9.69 -10.04,-18.14 -18.33,-24.35zm-30.65 99.88l0 0c-10.29,8.66 -23.53,12.98 -36.94,12.04l-16.69 0 0 -97.7 16.69 0c13.24,-0.95 26.32,3.39 36.39,12.04 17.54,21.09 17.54,51.7 0,72.79l0.54 0.83z"/>
   <path class="fil0" d="M18650.03 3416.19c6.66,5.15 14.15,9.13 22.16,11.77 9.33,2.72 19.01,4.01 28.73,3.83 9.27,0.07 18.48,-1.23 27.37,-3.83 8.05,-2.52 15.57,-6.51 22.16,-11.77 6.52,-5.26 11.53,-12.15 14.51,-19.98 3.35,-8.73 5.03,-18.02 4.93,-27.36l0 -99.89 -42.69 0 0 92.5c0.32,5.01 0.32,10.03 0,15.04 -0.54,4.38 -2.04,8.58 -4.38,12.32 -1.86,3.5 -4.72,6.36 -8.22,8.21 -4.06,2.36 -8.71,3.51 -13.4,3.28 -4.69,0.19 -9.34,-0.95 -13.41,-3.28 -3.27,-2.17 -6.05,-4.95 -8.21,-8.21 -2.11,-3.84 -3.59,-8 -4.38,-12.32 -0.32,-5.01 -0.32,-10.03 0,-15.04l0 -92.5 -43.51 0 0 99.89c-0.15,9.35 1.53,18.64 4.93,27.36 2.66,7.71 7.29,14.59 13.42,19.98z"/>
   <path class="fil0" d="M18923.12 3397.31c-6.91,1.58 -13.99,2.32 -21.08,2.19 -7.33,0.04 -14.62,-1.07 -21.61,-3.28 -6.28,-2.07 -12.06,-5.42 -16.97,-9.86 -4.8,-4.56 -8.61,-10.05 -11.22,-16.14 -2.73,-6.67 -4.04,-13.85 -3.83,-21.06 -0.06,-7.16 1.05,-14.29 3.28,-21.08 2.19,-6.2 5.65,-11.89 10.13,-16.69 4.4,-4.55 9.59,-8.26 15.32,-10.95 6.46,-2.87 13.47,-4.27 20.53,-4.1 7.13,0.01 14.23,1.01 21.08,3.01 7.2,1.73 14.11,4.5 20.52,8.21l3.29 -35.03c-7.67,-2.18 -15.33,-4.38 -23.27,-6.02 -8.02,-1.58 -16.18,-2.31 -24.35,-2.18 -12.39,-0.11 -24.74,1.55 -36.67,4.93 -10.66,3.3 -20.6,8.6 -29.29,15.59 -8.24,7.19 -14.87,16.06 -19.42,25.99 -4.59,11.67 -6.82,24.14 -6.58,36.67 -0.38,13.42 2.44,26.74 8.21,38.86 5.22,9.99 12.61,18.68 21.62,25.44 9.03,6.52 19.26,11.17 30.1,13.68 10.59,3.03 21.55,4.58 32.57,4.66 9.16,0.28 18.34,-0.46 27.36,-2.19 6.92,-1.2 13.76,-2.75 20.52,-4.65l-2.18 -33.66c-5.29,4.03 -11.48,6.67 -18.06,7.66z"/>
   <polygon class="fil0" points="18963.62,3299.07 19003.02,3299.07 19003.02,3428.24 19045.71,3428.24 19045.71,3299.07 19085.66,3299.07 19085.66,3267.33 18963.62,3267.33 "/>
   <path class="fil0" d="M17504.54 1204.6l0 2547.08 2037.56 0 0 -2547.08 -2037.56 0zm2015.12 2524.92l0 0 -1992.96 0 0 -1240.16 1992.96 0 0 1240.16zm0 -1262.6l0 0 -1992.96 0 0 -1240.16 1992.96 0 0 1240.16z"/>
   <polygon class="fil0" points="6382.5,1761.74 7579.43,1761.74 7675.48,1204.6 5775.83,1204.6 5325.68,3751.68 6033.33,3751.68 6201.07,2786.81 7168.69,2786.81 7265.01,2229.67 6300.41,2229.67 "/>
   <polygon class="fil0" points="7923.13,1204.6 7472.43,3751.68 8175.97,3751.68 8626.12,1204.6 "/>
   <polygon class="fil0" points="10363.22,2229.67 9398.63,2229.67 9480.72,1761.74 10677.91,1761.74 10774.23,1204.6 8873.49,1204.6 8423.35,3751.68 9130.73,3751.68 9298.74,2786.81 10266.62,2786.81 "/>
   <path class="fil0" d="M11363.93 1200.77l-1332.37 2550.37 678.64 0 214.54 -446.32 882.23 0 56.92 446.32 700.27 0 -410.47 -2550.37 -789.75 0zm-185.79 1571.8l0 0 428.53 -918.07 14.51 0 117.93 918.07 -560.97 0z"/>
   <path class="fil0" d="M13944.68 3176.75l242.18 -216.73c343.15,-307.3 860.62,-698.06 860.62,-1204.04 0,-454.52 -372.71,-618.71 -777.43,-618.71 -513.36,0 -957.77,227.96 -1055.45,748.43 -4.1,11.22 -21.62,130.25 -25.72,140.92l639.78 0c29.01,-180.89 82.1,-372.71 311.14,-372.71 123.14,0 224.12,64.85 224.12,199.21 0,238.35 -301.02,513.36 -487.92,693.96l-853.23 813.27 -68.95 390.49 1782.53 0 97.14 -555.77 -892.63 0 3.83 -18.33z"/>
   <path class="fil0" d="M16191.04 2960.02c343.15,-307.3 860.62,-698.06 860.62,-1204.04 0,-455.61 -372.71,-618.16 -777.43,-618.16 -513.36,0 -957.76,227.95 -1055.45,748.43 -4.11,11.22 -21.62,130.25 -25.73,140.92l639.79 0c29,-180.89 82.09,-372.71 311.14,-372.71 123.14,0 224.11,64.86 224.11,199.21 0,238.35 -301.01,513.37 -487.91,693.97l-853.23 813.27 -68.95 390.49 1782.52 0 97.69 -556.59 -893.18 0 3.83 -18.33 242.17 -216.45z"/>
   <path class="fil0" d="M2478.4 4956.27c1368.63,-0.15 2478.01,-1109.77 2477.85,-2478.4 -0.15,-1368.63 -1109.77,-2478.02 -2478.4,-2477.86 -1368.52,0.15 -2477.85,1109.61 -2477.85,2478.13 0,1368.63 1109.49,2478.13 2478.13,2478.13 0.09,0 0.18,0 0.28,0z"/>
   <path class="fil1" d="M4106.59 2876.84l63.21 0 0 10.94 -24.9 0 0 54.74 -10.95 0 0 -54.74 -24.89 0 0 -10.94 -2.47 0zm-2955.37 248.75l0 0 -141.48 0c-32.29,0 -47.61,-17.52 -47.61,-52.54l0 -56.65c-0.76,-14.48 3.93,-28.74 13.13,-39.95 8.58,-10.38 21.58,-16.07 35.03,-15.32l111.92 0c24.53,-1.73 46.68,14.63 52.26,38.58l15.33 54.73 102.61 0 0 -59.92c1.52,-75.56 -58.49,-138.04 -134.04,-139.56 -1.66,-0.03 -3.32,-0.03 -4.98,-0.01l-166.38 0c-77.98,-0.46 -141.57,62.4 -142.02,140.37 0,0.28 0,0.56 0,0.83l0 96.6c-0.61,77.98 62.11,141.69 140.1,142.3 0.64,0 1.27,0 1.92,0l143.12 0c31.47,0 47.62,18.06 47.62,54.73l0 73.05c0.44,14.23 -4.11,28.18 -12.87,39.42 -8.49,10.36 -21.36,16.13 -34.75,15.59l-113.29 0c-24.82,2.41 -47.56,-13.99 -53.09,-38.32l-15.05 -61.56 -103.16 0 0 66.77c-1.83,75.55 57.92,138.27 133.46,140.1 2.12,0.05 4.25,0.05 6.37,0.01l168.02 0c77.99,0.01 141.21,-63.19 141.23,-141.18 0,-0.83 -0.01,-1.66 -0.03,-2.48l0 -113.02c0.6,-37.78 -14.46,-74.13 -41.59,-100.42 -26.7,-27.44 -63.51,-42.68 -101.79,-42.14zm684.11 -228.77l0 0c26.98,25.84 42.04,61.7 41.59,99.06l0 140.92c0.6,37.78 -14.45,74.13 -41.59,100.42 -26.81,27.03 -63.44,42.05 -101.52,41.59l-183.61 0 0 246.28 -117.94 0 0 -669.88 302.65 0c37.78,-0.6 74.13,14.46 100.42,41.59zm-77.16 120.68l0 0c0.52,-14.34 -4.25,-28.37 -13.41,-39.41 -8.29,-9.99 -20.69,-15.64 -33.66,-15.33l-160.36 0 0 207.7 161.45 0c12.96,0.28 25.35,-5.36 33.66,-15.32 9.21,-11.01 13.99,-25.06 13.41,-39.4l-1.09 -98.24zm1176.67 230.14l0 0 117.67 276.65 -122.6 0 -109.46 -261.61 -112.74 0 0 261.61 -118.49 0 0 -669.06 296.08 0c37.41,-0.29 73.29,14.73 99.34,41.59 26.97,25.84 42.04,61.7 41.59,99.06l0 117.12c0.16,29.29 -8.61,57.93 -25.19,82.1 -16.18,23.1 -38.43,41.28 -64.3,52.54l-1.92 0.01zm-27.36 -230.14l0 0c0.71,-14.28 -3.87,-28.31 -12.87,-39.41 -8.15,-10.16 -20.64,-15.84 -33.65,-15.33l-154.61 0 0 191.55 154.61 0c12.9,0.26 25.25,-5.25 33.65,-15.04 8.84,-11.19 13.41,-25.17 12.87,-39.41l0 -82.36zm193.47 -54.74l0 0 170.21 0 0 560.97 118.76 0 0 -560.97 171.84 0 0 -108.08 -459.18 0 0 108.08 -1.63 0zm853.77 164.19l0 0 -142.57 0c-31.47,0 -47.62,-17.52 -47.62,-52.54l0 -56.65c-0.45,-14.41 4.09,-28.52 12.87,-39.94 8.52,-10.31 21.39,-15.98 34.75,-15.33l112.74 0c24.46,-1.68 46.53,14.68 51.99,38.59l15.6 54.74 103.16 0 0 -59.93c1.55,-75.56 -58.45,-138.05 -134.01,-139.58 -2.12,-0.04 -4.25,-0.03 -6.37,0.02l-164.18 0c-78.01,0.15 -141.3,63.19 -141.75,141.21l0 96.6c-0.43,37.91 14.59,74.36 41.59,100.97 26.23,27.07 62.47,42.12 100.16,41.59l142.57 0c32.29,0 47.61,18.07 47.61,54.74l0 73.06c0.41,14.18 -4.03,28.08 -12.58,39.4 -8.6,10.38 -21.56,16.14 -35.03,15.6l-113.56 0c-24.82,2.18 -47.51,-14.1 -53.36,-38.31l-15.33 -61.57 -103.17 0 0 66.76c-1.18,37.49 13.3,73.78 39.96,100.16 26.5,26.47 62.7,40.91 100.16,39.95l167.47 0c38.1,0.6 74.79,-14.43 101.52,-41.6 27.27,-26.41 42.34,-63 41.59,-100.97l0 -113.01c-1.46,-78.43 -64.68,-141.66 -143.12,-143.12l-1.1 -0.82zm292.26 -248.74l0 0 -25.45 39.4 -25.73 -39.4 -10.94 0 0 64.85 10.94 0 0 -39.95c0,-2.18 0,-4.38 0,-7.11 1.25,2.26 2.61,4.45 4.11,6.56l21.08 32.03 2.18 0 20.53 -31.48c1.43,-2.2 2.54,-4.6 3.28,-7.11 -0.22,2.36 -0.22,4.74 0,7.11l0 39.95 11.49 0 0 -64.85 -11.49 0zm-1845.19 19.42l0 0c27.58,25.7 42.91,61.92 42.14,99.61l0 383.93c1.26,38.5 -14.09,75.68 -42.14,102.07 -26.36,27.21 -62.83,42.26 -100.7,41.59l-158.72 0c-38.11,0.67 -74.83,-14.38 -101.52,-41.59 -27.46,-26.74 -42.45,-63.76 -41.32,-102.07l0 -385.29c0.75,-78.33 64.79,-141.27 143.12,-140.66l159.8 0c37.71,-0.74 74.04,14.11 100.43,41.04l-1.09 1.37zm-73.89 119.87l0 0c0.46,-14.42 -4.52,-28.49 -13.95,-39.41 -8.29,-10.13 -20.85,-15.8 -33.94,-15.33l-114.38 0c-13.43,-0.65 -26.39,5.02 -35.03,15.33 -8.55,11.32 -13,25.22 -12.59,39.41l0 343.15c-0.68,14.05 3.81,27.87 12.59,38.86 8.29,10.89 21.34,17.11 35.03,16.69l113.57 0c13.36,0.34 26.04,-5.91 33.93,-16.69 9.55,-10.63 14.55,-24.58 13.96,-38.86l0.82 -343.15zm498.85 -1870.37l0 0 -1274.91 0 -194.56 309.78 1273.54 0 195.93 -309.78zm482.44 928.49l0 0 -191.54 0 -195.66 310.58 582.59 0 195.65 309.21 372.16 0 -985.12 -1559.77 -791.66 1250.28 -866.63 0 198.39 -310.04 537.72 0 196.2 -309.22 -1199.66 0 -195.66 309.77 287.61 0 -392.41 620.62 1614.5 0 611.88 -971.71 221.65 350.27z"/>
  </g>
 </g>
</svg>
