<?xml version="1.0" encoding="UTF-8" standalone="no"?>
<svg
   version="1.1"
   x="0px"
   y="0px"
   viewBox="0 0 276.11932 152.27499"
   xml:space="preserve"
   data-inject-url="https://cdn.shopify.com/s/files/1/0014/1962/t/56/assets/logo-sea-of-thieves.svg?v=53362939847774868031634945846"
   class="injectable"
   aria-label="Sea of Thieves"
   id="svg111"
   sodipodi:docname="Collections - Fangamer-76.svg"
   width="276.11932"
   height="152.27499"
   inkscape:version="1.1.2 (b8e25be833, 2022-02-05)"
   xmlns:inkscape="http://www.inkscape.org/namespaces/inkscape"
   xmlns:sodipodi="http://sodipodi.sourceforge.net/DTD/sodipodi-0.dtd"
   xmlns="http://www.w3.org/2000/svg"
   xmlns:svg="http://www.w3.org/2000/svg"><defs
     id="defs115" /><sodipodi:namedview
     id="namedview113"
     pagecolor="#ffffff"
     bordercolor="#111111"
     borderopacity="1"
     inkscape:pageshadow="0"
     inkscape:pageopacity="0"
     inkscape:pagecheckerboard="1"
     showgrid="false"
     inkscape:zoom="2.8243775"
     inkscape:cx="137.9065"
     inkscape:cy="75.94594"
     inkscape:window-width="1128"
     inkscape:window-height="682"
     inkscape:window-x="-6"
     inkscape:window-y="-6"
     inkscape:window-maximized="1"
     inkscape:current-layer="g109" /><g
     id="g109"
     transform="translate(-1.1592734,-0.425)"><path
       class="st0"
       d="m 174.8,46.6 c -0.2,0.2 -0.4,0.4 -0.6,0.6 -0.1,0 -0.3,0.1 -0.4,0.1 -0.1,0.1 -0.1,0.3 -0.1,0.4 -0.3,0.3 -0.6,0.6 -0.9,0.9 -0.2,0 -0.3,0 -0.5,-0.1 -0.2,0 -0.3,-0.1 -0.4,0 0.5,0.2 0.9,0.4 1.3,0.7 0,0.2 0,0.4 -0.2,0.5 -0.1,0.3 -0.2,0.5 -0.3,0.8 0.3,-0.1 0.5,-0.2 0.7,-0.2 0.2,-0.2 0.4,-0.4 0.6,-0.7 0,-0.1 0,-0.1 0,-0.2 0,-0.1 0.1,-0.1 0.1,-0.2 0.1,-0.4 0.3,-0.7 0.5,-1.1 0,-0.2 0,-0.5 0.1,-0.6 0,-0.2 -0.1,-0.4 0,-0.6 0,0 0.1,-0.1 0.2,-0.1 0,-0.1 -0.1,-0.2 -0.1,-0.2 z"
       id="path63" /><path
       class="st0"
       d="m 177.2,44 c -0.1,-0.1 -0.2,0.1 -0.2,0.1 0.1,0 0.2,0 0.2,0 0,0 0,-0.1 0,-0.1 z"
       id="path65" /><path
       class="st0"
       d="m 276.8,72.4 c -0.3,0 -3.5,0 -8.1,0 -0.6,0 -1,-0.1 -1.6,-0.1 -0.8,0 -1.9,0.1 -2.9,0.1 -0.4,0 -0.8,0 -1.2,0 -0.2,0 -0.4,-0.1 -0.6,-0.1 -0.3,0 -0.5,0.1 -0.8,0.1 -0.4,0 -0.8,0 -1.2,0 -1.2,0 -2.2,-0.1 -3.5,-0.1 -1.3,0 -3,0.2 -4.4,0.2 -5.4,0 -11.2,0 -16.6,0 -1.2,0 -2.8,-0.2 -4,-0.2 -0.6,0 -1.3,0.1 -1.9,0.1 -0.5,0 -1,-0.1 -1.5,-0.1 -0.4,0 -0.9,-0.1 -1.3,-0.1 -0.5,0 -0.9,0.1 -1.4,0.1 -1.7,0 -3.2,0 -4.7,0 -4.6,0 -7.9,0.1 -8.2,0.1 v 2.8 c 0,0 0.9,-0.1 2.7,-0.2 0.9,0 2.2,0 3.5,0 0.6,0 1.4,0 2,0 0.7,0 1.4,-0.1 2.1,-0.1 1.2,-0.1 3.3,-0.1 6.2,-0.2 1.3,0 2.5,-0.3 3.9,-0.4 1.3,0 2.7,0.2 4,0.1 0.6,0 1.5,-0.1 2.1,-0.1 0.6,0 0.9,0.1 1.4,0.1 0.9,0 2.1,-0.1 3,-0.2 1.3,0 2.8,-0.2 4.1,-0.3 3.3,-0.1 6.6,-0.2 9.7,-0.2 0.4,0 1.7,0.3 2.4,0.2 0.9,0 1.7,-0.2 2.5,-0.3 0.6,0 1.1,0.1 2,0 0.7,-0.1 1.4,-0.1 2,-0.1 1.4,-0.1 1.2,0.1 2.4,0 3.8,-0.4 7.3,-0.5 8.1,-0.6 0.2,0.1 0.6,-0.5 -0.2,-0.5 z"
       id="path67" /><path
       class="st0"
       d="m 245.5,83.9 c -0.2,-0.1 -0.5,-0.2 -0.8,-0.4 -0.3,-0.2 -0.7,-0.7 -0.7,-0.7 l -3.2,-2.2 -3.1,-1.9 -4.4,-1.9 c 0,0 -1.6,-0.2 -3.1,-0.1 -1.5,0 -3,0.3 -3.1,0.3 -0.1,0 -0.7,0.7 -1.4,1.3 -0.8,0.7 -1.6,1.5 -1.6,1.5 l -0.8,0.4 -0.3,0.4 0.4,0.3 0.4,0.5 0.1,0.8 c 0,0 0.5,0.1 0.6,0.4 0.1,0.1 0.6,0.1 0.6,0.1 l 0.3,0.9 c 0,0 0.6,0.3 0.7,0.6 0,0.2 -0.4,-0.2 -0.8,-0.4 -0.2,-0.1 -0.7,-0.1 -0.7,-0.1 0,0 -0.3,-0.1 -0.3,-0.2 -0.1,-0.1 -0.9,0.1 -0.9,0.1 0,0 0.2,-0.7 0.1,-0.9 -0.1,-0.2 -0.5,-0.2 -0.5,-0.2 0,0 -0.2,0 -0.2,-0.1 -0.3,-0.8 -0.5,-1 -0.7,-1.1 0,0 -2.5,2.4 -3,2.9 -0.2,0.2 -0.6,0.4 -1.1,0.8 -0.5,0.4 -0.8,0.7 -1.3,1.1 -0.1,0.7 -0.6,1.4 -0.8,2.4 -0.1,0.4 0.5,0.3 0.7,1.2 0.2,0.9 0.3,1.6 0.4,1.9 0.1,0.4 0.4,0.7 0.7,1.7 0.2,0.7 0.4,1.4 0.6,2.1 0.3,1 0.7,1.7 0.8,2 0.1,0.4 0.1,0.7 0.3,1.1 0.2,0.3 0.5,0.6 0.8,1 0.2,0.2 0.3,0.4 0.4,0.7 0.1,0.2 0.3,0.4 0.4,0.7 0.2,0.4 0.3,0.9 0.4,1.2 0.4,0.7 1.8,2.3 1.8,2.3 0,0 2.1,2 2.2,2.2 0.2,0.2 0.8,0.5 0.8,0.5 l 0.5,1 c 0,0 1.1,1.7 1.2,1.9 0.1,0.2 1.2,1.2 2.1,2.5 0.7,1 1.6,2.1 2.3,3.2 0.7,1.1 1,2 1.3,2.6 0.8,2 0.7,3.5 0.8,4.1 0.5,0 1,-2.2 1,-2.2 0,0 0.3,1.5 -1.1,3.2 l -0.3,3.4 c 0,0 -0.4,0.4 -0.8,0.5 -0.4,0.1 -1.2,0.4 -1.4,0.1 -0.2,-0.1 -0.1,-0.7 -0.2,-1.3 0,-1.2 -0.3,-1.8 -0.5,-3.1 -0.1,-0.8 0.1,-2.1 -0.4,-2.2 -0.3,-0.1 -0.9,-0.7 -1.5,-1.3 -1.1,-1.2 -2.7,-2.8 -4.2,-4.7 -0.6,-0.7 -1.2,-1.2 -1.6,-1.8 -0.6,-0.8 -0.9,-1.4 -0.9,-1.4 l -1.4,-0.1 c 0,0 0.1,3 -0.2,5.5 -0.1,0.7 -0.4,1.2 -0.6,1.7 -0.2,0.7 -0.3,1.3 -0.4,1.7 -0.6,1.9 0.1,5.1 0.1,5.1 0,0 0.7,-1.5 0.9,-2.9 0.1,-0.9 -0.4,-1.6 -0.3,-2.5 0.2,-1.1 0.5,-2.2 0.5,-2.2 l -0.1,1.8 c 0,0 0.2,0.8 0.4,1.5 0.3,0.7 -0.3,3.3 -0.3,3.3 l -0.3,1.5 c 0,0 0,1.6 -0.3,1.7 -0.3,0.1 -0.5,1.3 -0.5,1.3 l -0.5,2.9 -0.5,-2.3 c 0,0 -0.6,0.6 -1.1,1.4 -0.3,0.3 -0.2,0.8 -0.3,1.2 -0.1,0.2 0,0.3 0.3,0.5 0.2,0.1 0.5,0.1 0.8,0.2 0.2,0.1 0.4,0.2 0.6,0.2 0.6,0.2 1.1,-0.1 1.8,0.1 1,0.2 2.2,0.6 3.1,1.2 0.5,0.4 1.1,0.6 1.4,0.8 0.2,0.2 0.7,0.1 0.9,0.1 1.1,-0.2 3.4,-0.7 5.9,-0.7 1,0 6.5,0 6.5,0 0,0 2.6,0.2 3.3,0.1 0.6,-0.3 0.7,-0.4 1.6,-0.8 0.1,-1.1 0.8,-1.8 0.9,-2.2 0.1,-0.4 0.1,-1 0.1,-1 l -0.2,-0.7 c 0,0 -1.6,-4.2 -1.9,-5.4 -0.1,-0.7 -0.3,-1.2 -0.5,-1.7 -0.1,-0.5 0,-0.9 -0.2,-1.3 -0.2,-0.4 -0.4,-0.7 -0.4,-0.9 0,-0.1 -0.1,-0.7 -0.3,-1 -0.2,-0.3 -0.4,-0.6 -0.6,-0.9 -0.2,-0.4 0,-0.7 -0.3,-1.2 -0.2,-0.3 -0.8,-0.5 -1,-0.8 -0.3,-0.4 -0.4,-1 -0.6,-1.4 -0.6,-0.9 -1.2,-1.8 -1.6,-2.6 -0.8,-1.3 -1.3,-2.4 -1.3,-2.4 -0.2,-0.2 -0.9,-0.8 -0.9,-0.8 l -1,-1.3 -1.4,-1.7 c 0,0 -0.4,-0.5 -1,-1.1 -0.8,-0.5 -1.9,-1.4 -2,-1.5 -0.1,-0.1 -2.1,-1.5 -2.2,-1.6 -1.9,-0.6 -4.7,-3.4 -4.7,-3.4 0,0 1.6,1.3 2.3,1.4 0.6,0 0.7,0.4 1.2,0.7 0.5,0.3 1.4,0.3 1.4,0.3 l 2.5,2.1 c -0.6,-0.8 -1.2,-1.6 -1.6,-2.2 -0.6,-1 -1.3,-2 -1.1,-3.5 0.2,-1.6 -0.3,-3 0.7,-4.3 1.3,-1.6 3.7,-3 4.2,-3.3 0.7,-0.5 2.1,-1.3 2.1,-1.3 0,0 -2.8,0 -4.1,1 -1.3,1 -3,3.1 -3,3.1 l 0.3,-0.9 c 0,0 1.8,-2.8 2.7,-3.2 0.7,0 1.4,-0.1 1.4,-0.1 0,0 3.7,-1.2 4.4,-1.3 0.5,-0.1 0,1.8 0,1.8 0,0 0.6,0.2 0.6,1.1 0,1 -0.1,2.6 -0.1,3.4 0,0.2 0.2,0.6 0.2,0.6 0,0 0.4,0.2 0.6,0.2 0.4,0 0.8,-0.1 0.8,-0.1 l 0.6,0.7 0.1,3.1 0.8,1.7 c 0,0 0.7,-0.4 1.6,-0.9 0.3,-0.2 0.7,-0.3 1.1,-0.5 0.9,-0.6 1.8,-1.4 2,-1.9 0.4,-1.4 0.8,-3.2 1.2,-4.2 0.2,-0.4 0.4,-0.8 0.7,-1.2 -0.9,1.2 -1.5,2.7 -1.7,3.3 -0.3,0.7 -0.9,1.4 -1.2,1.8 -0.3,0.5 -0.4,0.4 -0.4,0.4 0,0 0.2,-0.1 0.4,-0.4 0.2,-0.4 0.5,-1.1 0.9,-2.4 1.1,-3.3 2.6,-4.8 3.3,-4.6 0.1,0 0.1,0 0.2,0 0.1,-0.1 0.1,-0.2 0.1,-0.3 0,-0.3 -0.2,-3.3 -0.5,-3.6 -0.9,-0.6 -1.7,-1.5 -1.9,-1.6 z m -14.6,46 -1.2,-2.1 0.1,-1.9 0.4,0.3 c 0,0 0.4,-2.4 -0.9,-5.2 0,0 1.7,1.7 1.4,4.7 -0.3,3.1 1.3,4.6 1.3,4.6 z m 11.8,-33.6 c -0.3,0.5 -0.4,0.4 -0.4,0.4 0,0 0.2,-0.2 0.4,-0.4 z"
       id="path69" /><path
       class="st0"
       d="m 175.8,55.3 c -0.4,0 -0.9,0.1 -1.4,0.1 0,0 -0.1,0.1 -0.1,0.1 0.1,0.2 0.3,0.1 0.4,0.2 -0.3,0.2 -0.9,0.2 -1.2,0.3 -0.2,0 -0.5,0 -0.5,0.2 0.1,0.1 0.2,0 0.3,0 0.6,-0.1 1.6,-0.2 2.2,-0.3 0.1,0 0.4,0 0.4,-0.1 -0.2,-0.1 -0.6,0.1 -0.9,0 0,-0.4 0.8,-0.1 0.8,-0.5 z"
       id="path71" /><path
       class="st0"
       d="m 192.8,46.5 c 0,0.4 -0.1,0.8 -0.1,1.2 -0.2,0 -0.3,0.2 -0.4,0.3 -0.4,0 -0.9,0 -1.3,0 -0.3,0.3 -0.6,0.6 -0.9,0.9 -0.1,0.1 -0.2,0.2 -0.3,0.3 0,0 0.2,-0.1 0.3,-0.1 0.8,-0.3 2.1,-0.6 2.8,-0.3 0.1,0 0.1,0 0.1,0 0.1,0 0.1,-0.1 0.2,-0.2 0,-0.7 0.2,-1.3 0.3,-2 0.3,-0.2 0.5,-0.4 0.7,-0.7 0.2,-0.2 0.4,-0.3 0.6,-0.5 0.1,0 0.2,-0.1 0.1,-0.2 0,0 0,0 -0.1,0 0,0 0,0 0,0 -0.7,0.3 -1.2,0.6 -1.9,1 0,0.1 -0.1,0.2 -0.1,0.3 z"
       id="path73" /><path
       class="st0"
       d="m 191.7,34.8 c -0.7,0.2 -1.3,0.4 -1.8,0.7 -0.5,0.3 -1,0.6 -1.6,0.9 -0.2,0.3 -0.5,0.5 -0.8,0.7 -0.4,0.2 -0.8,0.3 -1.2,0.5 -0.1,0.1 -0.2,0.2 -0.3,0.3 -0.6,0.2 -1.1,0.5 -1.3,0.9 -0.2,0 -0.4,0.1 -0.6,0.2 -0.7,0.5 -1.4,1.1 -2.1,1.6 -0.4,0.3 -0.7,0.5 -1,0.8 -0.3,0.3 -0.6,0.6 -1,0.9 -0.1,0 -0.2,0.1 -0.3,0.1 -0.1,0.1 -0.1,0.2 -0.1,0.3 -0.1,-0.1 -0.1,-0.1 -0.2,-0.1 -0.1,0 -0.2,-0.1 -0.2,-0.1 0.2,0.5 0.5,1.1 0.6,1.8 0,0.2 0.1,0.5 0,0.7 -0.2,-0.1 -0.5,-0.2 -0.7,-0.2 0.2,0.2 0.3,0.4 0.5,0.6 0.1,-0.1 0.2,-0.1 0.3,-0.2 0,0 0.1,0.1 0.1,0.2 0.1,-0.1 0.2,-0.1 0.4,-0.2 0.3,0.2 0.7,0.4 1,0.6 0.1,0.1 0.2,0.2 0.3,0.3 0,0.5 0,1 0,1.5 0,0.4 0,0.9 0,1.3 0,0.4 0,0.9 -0.3,1.1 -0.1,0 -0.2,0 -0.3,-0.1 -0.1,0.1 -0.1,0.3 -0.3,0.4 -0.1,0 -0.2,-0.1 -0.3,-0.1 0,0.2 0,0.3 -0.1,0.5 0,0 -0.1,0 -0.1,0.1 0.1,0 0.2,0 0.3,-0.1 0,-0.1 0,-0.3 0.1,-0.3 0.1,0 0.2,0 0.3,0 0.4,-0.3 0.8,-0.6 1.2,-0.9 0,-0.1 -0.2,0 -0.2,-0.1 0,-0.1 0,-0.1 0.1,-0.2 0.2,-0.2 0.6,-0.1 1,-0.2 0.5,-0.5 1,-1 1.6,-1.4 0.2,-0.1 0.3,-0.3 0.6,-0.4 0.2,0 0.2,0.2 0.1,0.3 -0.3,0.3 -0.5,0.6 -0.8,0.9 -0.1,0.2 -0.3,0.3 -0.4,0.5 -0.1,0.2 -0.3,0.3 -0.4,0.5 0.1,0.2 0,0.4 -0.2,0.5 -0.3,0 -0.4,0.1 -0.5,0.3 0,0.1 0,0.2 0,0.3 -0.2,0.3 -0.3,0.6 -0.5,0.8 0,0.2 -0.1,0.5 -0.1,0.7 -0.2,0.4 -0.4,0.8 -0.7,1.2 0.4,-0.1 0.9,-0.1 1.2,-0.3 0.1,0.1 0.3,0.1 0.4,0.2 0.1,0 0.3,0 0.4,0.1 -0.1,0.1 -0.2,0.1 -0.3,0.1 -0.4,0.1 -0.7,0.2 -1.1,0.3 -0.3,0 -0.7,0.1 -0.9,0.2 0,0.1 -0.2,0.2 -0.2,0.4 0.2,0 0.5,-0.1 0.7,-0.2 0.1,0 0.2,-0.1 0.2,0 -0.1,0.1 -0.3,0.2 -0.4,0.4 -0.6,0.2 -1.2,0.5 -1.8,0.7 0,0 -0.2,0 -0.1,0 0.1,0 0.2,0 0.4,0 0.2,0 0.4,0 0.4,0.2 0,0.1 -0.1,0.1 -0.2,0.1 -0.4,0.1 -0.9,0.2 -1.3,0.2 -0.2,0 -0.4,0 -0.5,-0.1 -0.1,-0.1 0.1,-0.2 0.1,-0.2 -0.4,0 -0.9,0 -1.3,0.1 -0.1,0 -0.2,0 -0.2,0.1 0.2,0 0.4,0 0.6,0 0.1,0.1 0.5,-0.1 0.5,0.1 0,0.2 -0.3,0.3 -0.4,0.3 -0.1,0 -0.2,0 -0.3,0 -0.8,0.1 -1.6,0.2 -2.5,0.3 -0.9,0.1 -1.7,0.2 -2.5,0.3 -0.1,0 -0.1,0 -0.1,-0.1 0,-0.1 0.1,-0.1 0,-0.2 -0.1,0 -0.2,0 -0.3,0 -0.1,0 -0.1,-0.1 -0.2,-0.1 -0.5,0 -1.1,0.2 -1.5,0.1 0,0 0,-0.1 0,-0.1 0.1,-0.1 0.2,-0.1 0.3,-0.2 0.8,-0.1 1.7,-0.4 2.5,-0.5 0.1,0 0.2,0 0.3,-0.1 -0.8,0.1 -1.6,0.2 -2.3,0.3 -0.1,0 -0.2,0 -0.3,-0.1 0,-0.1 0.1,-0.1 0.2,-0.2 -0.3,0 -0.7,0.1 -1.1,0.1 0,0 -0.1,0 -0.1,0 -0.1,0 -0.3,0 -0.4,-0.1 0,-0.1 0,-0.1 0.1,-0.2 0.5,-0.2 1.1,-0.3 1.6,-0.4 -0.1,-0.1 -0.4,-0.2 -0.6,-0.4 -0.1,-0.1 0,-0.2 -0.1,-0.4 0,0 -0.1,0.1 -0.2,0.1 -0.1,0 -0.1,-0.2 -0.2,-0.2 -0.2,-0.3 -0.3,-0.6 -0.5,-0.9 -0.1,0.5 -0.4,0.9 -0.6,1.4 -0.2,0.1 -0.2,0.2 -0.4,0.3 -0.2,0.1 -0.3,0.1 -0.5,0.2 -0.1,0.2 -0.1,0.4 -0.2,0.6 0.1,0.4 0.2,0.8 0.3,1.1 0.1,0.1 0.2,0.2 0.4,0.4 0.5,0.3 1.1,0.5 1.6,0.8 0.5,0.9 1.2,1.4 1.7,2.3 0.4,0.3 0.9,0.5 1.4,0.7 0.2,-0.1 0.3,-0.1 0.4,-0.2 0.5,-0.2 0.9,-0.5 1.4,-0.7 0.1,0 0.2,0.1 0.2,0.2 0.4,0.2 0.9,0.5 1.3,0.8 0.5,0.2 0.9,0.5 1.4,0.7 0.1,0 0.2,0 0.2,0.1 0,0.7 -0.2,1.3 -0.2,2 0,0.1 -0.1,0.1 -0.1,0.3 0.2,0 0.4,0 0.6,0 0,0.2 0,0.3 0.1,0.5 0.1,0.1 0.2,0.1 0.3,0.3 0,0.7 0,1.4 0.1,2.1 0,0.2 0,0.5 0,0.7 0.1,0.1 0.2,0.2 0.4,0.3 0.3,0.3 0.7,0.6 1.2,0.8 0.1,-0.1 0.3,-0.1 0.4,-0.2 -0.1,-0.6 -0.2,-1.3 -0.3,-1.9 0.3,-0.4 0.6,-0.8 0.9,-1.2 0,0 -0.1,-0.1 -0.1,-0.1 -0.4,0.4 -0.8,0.7 -1.3,1 -0.1,0 -0.2,0.1 -0.4,0.1 -0.1,0 -0.1,-0.1 -0.2,-0.1 -0.1,0 -0.2,0 -0.2,-0.1 0,-0.2 0.1,-0.3 0.3,-0.4 0.1,-0.1 0.2,-0.2 0.3,-0.4 0,-0.4 0.3,-0.7 0.5,-1 -0.1,-0.2 -0.1,-0.4 -0.2,-0.6 0.1,-0.3 0.3,-0.5 0.4,-0.8 -0.1,-0.1 -0.3,-0.3 -0.2,-0.5 0.1,-0.2 0.2,-0.3 0.4,-0.4 0.1,-0.1 0.2,-0.3 0.4,-0.4 0.1,0 0.3,0.1 0.4,0.1 0,0.1 0.1,0.2 0.1,0.2 0.3,0.1 0.4,0.4 0.4,0.7 0,0.1 -0.1,0.2 -0.2,0.3 -0.1,-0.1 -0.1,-0.3 -0.3,-0.3 -0.3,0.2 0.2,0.5 0.2,1 0.1,0 0.1,-0.1 0.2,-0.2 0.2,-0.5 0.6,-0.9 1.3,-1 0.3,0.2 0.5,0.4 0.7,0.6 0,0.2 0.1,0.4 0.2,0.6 0.1,0 0.3,0 0.4,0 0.2,0.4 0.3,0.9 0.5,1.2 0,0.3 -0.4,0.4 -0.6,0.5 0.1,0 0.2,0 0.2,0.1 0.1,0.2 0.2,0.4 0.3,0.7 0,0.1 -0.1,0.2 -0.1,0.3 0.1,0.5 0.1,1 0.2,1.5 0.1,0.2 0.2,0.3 0.3,0.5 0.1,0.3 0.1,0.6 0.2,0.8 0.3,-0.2 0.6,-0.4 0.9,-0.5 0.3,0 0.6,0.1 0.9,0.1 0.1,-0.1 0.3,-0.2 0.5,-0.3 -0.1,-0.2 -0.1,-0.5 -0.2,-0.7 0.1,-0.2 0.1,-0.3 0.2,-0.5 0,-0.2 -0.1,-0.4 -0.1,-0.6 -0.1,-0.2 -0.3,-0.2 -0.4,-0.4 0,-0.4 0.3,-0.7 0.3,-1.2 0.1,-0.1 0.2,-0.1 0.3,-0.2 0,0 -0.1,-0.1 -0.1,-0.1 0.1,-0.1 0.2,-0.3 0.2,-0.5 -0.1,-0.1 -0.2,-0.2 -0.2,-0.3 -0.1,0.1 -0.2,0.2 -0.4,0.2 -0.1,0 -0.2,0.1 -0.3,0 0,-0.1 0.1,-0.1 0.1,-0.2 0.2,-0.5 0.3,-0.9 0.4,-1.4 0.1,-0.4 0.5,-0.5 0.9,-0.6 0.1,-0.1 0.2,-0.3 0.3,-0.4 0.2,0 0.4,0 0.6,0 0.1,0 0.2,0 0.3,0 0.1,0 0.3,-0.2 0.4,0 0,0.2 -0.5,0.2 -0.5,0.5 0.1,0 0.2,0 0.3,0 0.1,0.3 -0.4,0.2 -0.5,0.4 0,0.1 0.2,0.2 0.2,0.3 0.1,0.1 0.2,0.2 0.3,0.2 0.2,0.3 0.5,0.3 0.6,0.7 0,0 0,0.1 -0.1,0.1 -0.4,0.1 -0.7,-0.1 -1.1,-0.1 0.1,0.6 0.6,0.4 0.9,0.7 0,0.1 -0.1,0.2 -0.2,0.2 0.1,0.3 0.3,0.5 0.4,0.7 0.1,0.1 0.2,0.1 0.3,0.2 0,0.1 -0.1,0.1 -0.1,0.2 0.4,0.3 0.8,0.5 1.2,0.9 0,0.1 0,0.1 0,0.2 0.2,0.2 0.4,0.5 0.8,0.6 0.3,-0.3 0.5,-0.6 0.7,-0.9 0.1,-0.6 0.1,-1.3 0.2,-2 0.4,-0.6 0.5,-1.4 0.6,-2.1 -0.2,-0.1 -0.1,-0.4 -0.1,-0.6 -0.2,0 -0.4,-0.1 -0.7,-0.1 0,0.1 0.1,0.1 0.1,0.2 -0.1,0.3 -0.2,0.5 -0.5,0.5 -0.2,-0.1 -0.3,-0.2 -0.4,-0.4 -0.1,0 -0.3,0 -0.4,0 -0.2,-0.1 -0.4,-0.2 -0.5,-0.4 0,-0.1 0.1,-0.2 0.2,-0.3 -0.1,0 -0.2,-0.1 -0.2,-0.2 0,-0.1 0.1,-0.2 0.2,-0.3 -0.5,-0.9 -0.9,-1.7 -1.4,-2.6 0,-0.1 0,-0.1 -0.1,-0.2 0,-0.4 0,-0.8 0.1,-1.1 0,-0.1 0,-0.3 0.2,-0.3 0.1,0.1 1.3,3 1.7,4 0.2,0 0.3,0.2 0.3,0.3 0,0 0,0 0,0 0.3,-0.1 0.6,-0.3 0.9,-0.4 0,-0.2 0,-0.3 0.2,-0.3 0.2,-0.7 0.3,-1.4 0.5,-2.2 0.3,-0.1 0.3,-0.4 0.1,-0.5 0.1,-0.2 0.3,-0.3 0.3,-0.5 -0.1,-0.2 -0.4,-0.3 -0.2,-0.6 0,-0.1 -0.1,0 -0.1,-0.1 0,-0.1 0,-0.2 -0.1,-0.3 0,-0.1 0.1,-0.1 0,-0.1 0,-0.1 -0.1,-0.1 -0.2,-0.2 0,-0.1 0,-0.1 0,-0.2 -0.6,-0.1 -0.4,-0.4 -0.4,-0.4 0.1,0 0.1,0 0.2,0 0.4,-0.1 0.5,-0.3 0.9,-0.4 0.3,0 0.6,0 0.9,0.1 0.2,0.2 0.2,0.7 0.4,0.9 0,0.2 -0.1,0.3 -0.1,0.5 0,0.1 0.1,0.1 0.1,0.1 0,0.1 -0.1,0.1 -0.1,0.2 0,0.1 0.2,0.1 0.2,0.2 0,0.1 -0.1,0.1 -0.1,0.2 0.1,0.2 0.3,0.3 0.4,0.4 0,0.1 -0.1,0.1 0,0.2 0.7,0.4 1.6,0.6 2.1,1.2 0.2,-0.2 0.3,-0.3 0.5,-0.5 0,-0.3 0.1,-0.6 0.1,-0.8 0,-0.2 0,-0.4 0,-0.6 0,-0.1 0.1,-0.1 0.1,-0.2 0,0 -0.1,0 -0.1,-0.1 0.2,-0.3 0.3,-0.6 0.4,-0.9 0,-0.1 -0.1,-0.3 -0.1,-0.4 0,-0.1 0.1,-0.1 0.1,-0.2 0,-0.1 0,-0.2 0,-0.3 0.1,-0.2 0.3,-0.3 0.4,-0.5 0.2,-0.4 0.5,-0.7 0.8,-1 0.3,-0.3 0.6,-0.7 0.9,-1 -0.1,-0.4 -0.1,-0.6 -0.1,-1 -0.2,-0.2 -0.4,-0.3 -0.6,-0.4 -0.1,0 -0.1,0.1 -0.2,0.1 -0.1,0 -0.1,-0.1 -0.2,-0.1 -0.2,-0.4 -0.5,-0.7 -0.7,-1.2 -0.2,-0.4 -0.5,-0.7 -0.6,-1.2 0,-0.7 0.4,-1 0.7,-1.5 0,-0.5 0.1,-0.9 0.2,-1.3 0,-0.7 -0.2,-1.6 -0.1,-2.2 0,-0.2 0.1,-0.4 0,-0.6 0,-0.1 0,-0.1 0,-0.2 -0.1,-0.5 0,-1 -0.1,-1.6 -0.6,-0.4 -1,-1 -1.5,-1.6 -0.5,-0.5 -0.8,-1.4 -1.1,-2.2 -0.3,-0.1 -0.6,-0.2 -1,-0.3 -0.2,0 -0.3,-0.1 -0.5,-0.1 -0.1,-0.1 -0.4,0 -0.4,-0.2 0.1,-0.1 0.2,-0.1 0.4,-0.1 0.2,0 0.4,0 0.6,-0.1 -0.4,-0.5 -0.7,-1.2 -1.1,-1.7 -0.1,-0.3 -0.3,-0.6 -0.4,-0.9 -0.1,0 -0.2,-0.1 -0.3,-0.1 0,-0.2 -0.2,-0.2 -0.3,-0.3 -0.7,0 -1.3,0.2 -1.9,0.4 -0.6,0.5 -0.8,0.8 -1.1,1 z m 0.9,32.3 c 0.1,0 0,0.1 0,0 z m -3.8,-27.6 c 0.2,-0.1 0.4,-0.1 0.7,-0.1 0.1,-0.2 0.2,-0.3 0.4,-0.4 0.2,-0.1 0.4,-0.2 0.7,-0.2 0.2,0.1 0.4,0.1 0.6,0.2 0,0 0,0.1 0,0.2 -0.1,0.1 -0.2,0.1 -0.4,0.1 -0.4,0.2 -0.5,0.5 -0.9,0.7 -0.2,0 -0.4,0 -0.6,0.1 -0.2,0.1 -0.4,0.3 -0.6,0.5 -0.1,0 -0.1,0 -0.2,0 -0.1,0 -0.1,-0.1 -0.1,-0.1 0,-0.4 0.2,-0.7 0.4,-1 z m -2.8,4.7 c 0.2,-0.4 0.4,-0.8 0.6,-1.2 0.1,-0.1 0.2,-0.2 0.3,-0.2 0.2,0 0.4,0 0.5,0 0.3,-0.3 0.5,-0.6 0.7,-0.8 0.5,0 0.9,0.2 1.3,0.3 0.1,0 0,-0.1 0.1,0 0,0 0.1,0 0.1,0.1 0,0.1 0,0.2 0,0.2 -0.1,0.1 -0.3,0.1 -0.5,0.1 -0.1,0 -0.2,-0.1 -0.3,-0.1 -0.1,0.1 -0.2,0.1 -0.3,0.2 -0.1,0.3 -0.3,0.5 -0.4,0.7 -0.1,0.1 -0.2,0.2 -0.4,0.2 -0.3,0 -0.5,0 -0.8,0 -0.2,0.1 -0.5,0.5 -0.5,0.5 0,0 -0.3,0.4 -0.4,0.5 -0.1,0.1 -0.1,0.1 -0.2,0.1 0.1,-0.4 0.2,-0.5 0.2,-0.6 z m -5.6,13.5 c -0.2,0 -0.5,0.1 -0.7,0.1 -0.1,0 -0.2,0 -0.3,0 0,-0.1 0.2,-0.1 0.2,-0.1 0.1,0 0.2,-0.1 0.3,-0.1 0.2,-0.1 0.3,-0.2 0.5,-0.3 0.3,0 0.7,-0.1 1,-0.2 0.1,0 0.2,0 0.3,0.1 0.1,0 0.3,0 0.4,0.1 0,0.1 -0.2,0.1 -0.2,0.1 0,0 -0.1,0 -0.1,0 -0.5,0.1 -1,0.1 -1.4,0.3 z m 0.9,2.4 c -0.1,0 -0.3,0.1 -0.4,0 0,-0.1 0.2,-0.1 0.2,-0.2 0.1,-0.1 0.1,-0.1 0.2,-0.2 0,0 0,0 0,0 0.4,-0.1 0.8,-0.1 1.2,-0.2 0.2,0.1 0.3,0.1 0.5,0.2 -0.4,0.2 -1.1,0.3 -1.7,0.4 z m 8.2,-2.4 c -0.5,0.1 -1,0.2 -1.5,0.2 -0.1,0 -0.2,-0.1 -0.3,-0.1 -0.3,-0.4 -0.6,-0.6 -0.8,-1.1 -0.3,0 -0.7,0.1 -0.8,-0.2 0.1,-0.1 0.4,-0.2 0.6,-0.3 0,-0.4 -0.3,-1 -0.2,-1.4 -0.6,0.3 -0.9,0.9 -1.2,1.4 -0.2,0.6 -0.4,1.3 -0.3,2.1 1.3,-0.1 2.7,-0.2 4,-0.3 0.2,0 0.4,-0.1 0.6,-0.1 0,0.2 -0.2,0.2 -0.3,0.3 -0.1,0.1 -0.3,0.1 -0.5,0.1 -0.3,0 -0.5,-0.1 -0.8,0 -0.8,0.1 -1.4,0.4 -2.3,0.5 -0.1,0 -0.2,-0.1 -0.3,-0.1 -0.1,0 -0.3,0 -0.4,-0.1 -0.8,0.1 -1.6,0.2 -2.3,0.2 -0.2,0 -0.3,0 -0.5,0 -0.1,0 -0.3,0 -0.4,0 0,-0.2 0.3,-0.1 0.4,-0.2 0.4,-0.1 0.8,-0.3 1.1,-0.4 0.1,0 0.3,-0.1 0.3,-0.2 0,-0.2 -0.3,-0.2 -0.5,-0.2 -0.4,0 -0.9,0.1 -1.3,0.1 -0.1,0 -0.3,0.1 -0.4,0 0,-0.2 0.2,-0.2 0.4,-0.2 0.3,-0.1 0.6,-0.2 0.9,-0.3 0.1,0 0.3,0 0.4,-0.2 -0.3,-0.1 -0.7,0 -1,-0.1 0,-0.2 0.1,-0.4 0.1,-0.6 0.1,-0.1 0.1,-0.2 0.2,-0.2 0.2,-0.4 0.3,-0.9 0.5,-1.3 0.2,-0.2 0.4,-0.4 0.6,-0.6 0.2,-0.6 0.4,-1.3 0.6,-1.9 0.3,0.1 0.4,0.2 0.7,0.2 0.1,-0.1 0.1,-0.3 0.2,-0.4 0.1,-0.2 0.1,-0.3 0.2,-0.4 0,0 0,0 0,0 0,0 0,0 0.1,0 0.1,0 0.1,0 0.1,0 0.3,0.2 0.6,0.4 1,0.5 0.2,0 0.3,0 0.4,0.1 0.6,1.1 1.3,2.3 2,3.4 0.1,0.1 0.3,0.4 0.3,0.5 0,0.2 -0.1,0.3 -0.2,0.4 -0.3,0.2 -0.6,0.4 -0.6,0.8 0.3,0.1 0.8,-0.1 1.1,0.1 0.1,0 0.3,0 0.3,0.1 0.1,-0.1 -0.1,-0.1 -0.2,-0.1 z M 194,42 c 0.2,-0.2 0.4,-0.5 0.6,-0.7 0.2,-0.2 0.4,-0.5 0.6,-0.7 0.1,0 0.2,-0.1 0.3,0 0,0.4 -0.1,0.7 -0.1,1.1 0.1,0.1 0.2,0.1 0.3,0.2 0.1,0.8 0.1,1.6 0.2,2.4 0.1,0 0.1,0.1 0.2,0.1 0,0.1 0,0.2 0.1,0.3 0,0.1 0.1,0.1 0.1,0.1 0.4,0.8 0.4,1.9 0.6,2.8 0.1,0.1 0.2,0.4 0.2,0.6 0.2,0.1 0.6,0.1 0.8,0.3 0.1,0 0.3,0 0.5,0 0.1,0 0.3,0 0.4,0.1 -0.1,0.1 -0.2,0.1 -0.4,0.2 -0.1,0.1 -0.3,0.1 -0.4,0.2 0,0.1 0,0.2 -0.1,0.3 -0.4,0.1 -0.7,0.1 -0.9,-0.1 -0.2,0.1 -0.5,0.3 -0.7,0.4 -0.5,0.1 -0.9,0.2 -1.4,0.3 -0.2,0 -0.3,0 -0.4,0.1 0.8,0 1.5,-0.1 2.3,-0.1 0,0 0.1,0 0.2,0 0.1,-0.1 0.2,-0.3 0.4,-0.3 0.1,0 0.1,0.1 0.2,0.1 0.2,0.1 0.4,0.1 0.6,0.2 -0.1,0.2 -0.3,0.2 -0.5,0.3 -0.7,0.1 -1.4,0.2 -2.2,0.3 0,0.1 0.3,0.1 0.4,0.1 0.8,-0.1 1.6,-0.2 2.4,-0.3 0.1,0 0.2,-0.1 0.3,0 0,0.2 -0.2,0.2 -0.4,0.3 -0.1,0.1 -0.3,0.2 -0.4,0.2 -0.2,0 -0.3,-0.2 -0.5,-0.2 0,0 0,0.2 0,0.2 -0.1,0.1 -0.4,0.2 -0.6,0.2 -0.3,0.1 -0.7,0.1 -1,0.2 -0.2,0 -0.3,-0.2 -0.5,-0.2 -0.4,0.1 -0.9,0.2 -1.3,0.2 -0.1,0 -0.2,-0.2 -0.3,-0.3 -0.1,0 -0.1,0 -0.2,0 -1.2,0.2 -2.3,0.4 -3.4,0.5 -0.1,0 -0.2,0 -0.3,0.1 0.1,0 0.3,0 0.4,0.1 0.7,-0.1 1.4,-0.2 2.1,-0.3 0.2,0 0.6,-0.1 0.6,0 0.1,0.2 -0.2,0.2 -0.2,0.3 0.9,-0.1 1.7,-0.2 2.6,-0.3 0.1,0 0.2,0 0.2,0.1 0,0.1 0,0.1 0,0.2 0.2,0 0.4,0 0.7,0 0.2,0 0.5,-0.2 0.6,0 -0.2,0.4 -0.8,0.5 -1.5,0.6 -0.1,-0.1 -0.1,-0.1 -0.2,-0.2 -0.9,0.2 -1.8,0.4 -2.8,0.5 -0.1,0 -0.1,-0.1 -0.2,-0.1 -0.6,0 -1.3,0.2 -1.9,0.1 0,0 -0.1,-0.1 -0.1,-0.1 0,-0.2 0.1,-0.2 0.1,-0.3 0,0.1 -0.2,0 -0.3,0.1 -0.4,0 -0.8,0.1 -1.2,0.1 -0.1,0 -0.2,-0.1 -0.2,-0.1 0,-0.1 -0.1,-0.1 -0.1,-0.1 0,-0.2 0.2,-0.3 0.4,-0.4 -0.3,-0.1 -1,0.1 -1.1,-0.2 0,-0.1 0.1,-0.1 0.2,-0.2 0.1,0 0.2,0 0.3,0 0.4,-0.1 0.8,-0.1 1.1,-0.2 0.2,0 0.5,-0.1 0.9,-0.1 0.7,-0.1 1.5,-0.2 2.3,-0.3 -0.3,-0.1 -0.8,0 -1.2,0 -0.1,0 -0.1,-0.1 -0.2,-0.1 -0.1,0 -0.1,0 -0.2,0 -0.5,0.2 -1.2,0.1 -1.7,0.1 -0.1,0 -0.2,0 -0.2,-0.2 0.1,-0.2 0.5,-0.2 0.6,-0.3 -0.6,0 -1.2,0.2 -1.8,0.2 -0.2,-0.1 -0.2,-0.3 -0.1,-0.5 0.1,-0.1 0.2,-0.2 0.3,-0.4 0.3,-0.3 0.7,-0.7 1,-1 0.2,-0.2 0.5,-0.4 0.7,-0.7 0.2,-0.2 0.5,-0.4 0.7,-0.6 0,-0.3 0,-0.7 0.1,-1 0.3,-0.2 0.7,-0.3 0.9,-0.5 -0.1,-0.2 -0.1,-0.5 -0.1,-0.7 0.2,-0.3 0.6,-0.5 0.9,-0.7 0.3,-0.2 0.6,-0.5 0.9,-0.7 -0.1,-0.1 0,-0.2 -0.1,-0.3 0.3,-0.3 0.7,-0.8 1.1,-1.3 z"
       id="path75" /><path
       class="st0"
       d="m 73.5,63.8 c 0.9,0.2 2.6,1.5 3.8,1.6 1.3,0.1 3.6,0.7 4.1,0.7 0.5,0 0.8,0 0.8,0 0,0 0.7,-0.7 1.7,-1 0.7,-0.2 1.6,-0.1 1.6,-0.1 0,0 1,-0.9 1.5,-1.3 1.3,-1.3 2.2,-2.3 3,-2.9 0.2,-0.2 0.4,-0.3 0.6,-0.4 0.1,-0.2 0.2,-0.3 0.4,-0.4 0.2,-0.2 0.4,-0.4 0.7,-0.4 0.3,0 -0.1,0.4 -0.5,0.9 -0.2,0.2 -0.2,0.5 -0.3,0.6 -0.3,0.4 -0.4,0.7 -0.5,0.9 -0.1,0.3 -0.3,0.6 -0.3,0.6 0,0 0.4,0.3 0.9,0.4 0.2,0.1 0.6,0.2 1.3,0.4 0.8,0.3 1.8,0.6 2.9,1 0.7,0.3 1.1,0.3 1.7,0.4 1.7,0.5 3.1,0.8 4,0.6 0.7,-0.2 0.4,-0.4 1.5,-0.8 0.4,-0.1 1,0 1.7,0 0.6,0 0.8,-0.7 2.1,-0.4 0.5,0.1 1.2,0.3 1.9,0.4 0.7,0.1 1.4,0.1 1.4,0.1 0,0 -4,0.3 -4.5,0.7 -0.1,0.1 -0.3,0.1 -0.3,0.1 0.1,0.2 0.8,0.2 1.2,0.3 0.5,0.1 2,0.5 2.6,0.7 0.3,0.1 0.2,-0.1 0.7,-0.4 0.4,-0.3 1.2,-0.5 1.7,-0.6 0.6,0 0.8,-0.5 0.7,-1.3 -0.1,-0.9 0.4,-4.7 1,-7.7 0.1,-0.5 0.2,-1 0.2,-1.5 -0.1,-1.1 -0.8,-2.4 -1.3,-4 -0.4,-1.3 -1.1,-2.8 -1.4,-3.5 -1,-2 -1.3,-2.8 -3,-3.7 -2,-1.1 -1.9,-1.8 -2.7,-2.6 -0.5,-0.5 -1.5,-1.3 -2.3,-1.8 -0.6,-0.4 -1.5,-0.9 -2.1,-1.3 -1.4,-1 -2.6,-1.9 -4.4,-2.8 -1,-0.5 -2.6,-1.2 -4.1,-2.2 -1.1,-0.7 -2.1,-1.6 -3.2,-2.7 -1.2,-1.2 -2.2,-2.1 -2.8,-2.9 -0.7,-0.9 -0.9,-1.2 -0.6,-2.8 0,0 0,-0.2 0,-0.4 0,-0.2 0.2,-0.3 0.2,-0.9 0,-0.3 0.1,-0.7 0.2,-1 0.1,-0.1 0.3,0 0.4,-0.1 0.1,-0.2 0.4,-0.5 0.5,-0.7 0.4,-0.5 0.7,-1 0.9,-1.1 0.2,-0.2 0,0.4 -0.4,1.2 -0.7,1.1 -0.9,1.6 -0.9,2.2 0,0 0.9,-0.9 2,-1.5 1.1,-0.6 2.1,-1.1 2.7,-1.3 0.6,-0.2 1.9,-0.3 2.9,-0.7 0.5,-0.2 0.7,-0.5 1.1,-0.9 0.2,-0.2 1.4,-1.2 2.9,-1.7 0.9,-0.3 2,-0.5 3.2,-0.6 0.8,-0.1 1.1,-0.2 2,-0.2 0.4,0 1.2,0.1 1.5,0.1 0.9,0.1 2.4,0.6 3.4,0.8 0.2,0 0.5,0.1 0.8,0.2 0.3,0.1 0.5,0.1 0.8,0.2 0.7,0.3 1.4,0.7 1.9,1.1 0.3,0.2 0.5,0.6 0.4,1 0,0.2 -0.3,0.9 -0.5,1.1 -0.2,0.3 -0.6,0.8 -1.1,1.3 -0.5,0.6 -1.2,1 -1.8,1.7 -1.5,1.7 -3.3,4.3 -3.5,5.1 0.1,0.7 0.4,2.1 0.4,2.1 0,0 1.9,-2.5 5.3,-3.8 1.1,-0.5 2,-0.8 2.5,-1.1 0.8,-0.4 0.8,-0.4 1,-1 0.4,-1 0.5,-1 1.7,-1.4 0.7,-0.2 0.9,-0.2 1.2,-0.4 0.4,-0.3 1,-0.8 1.5,-1.4 0.7,-0.7 1.5,-1.2 1.7,-1.8 0.1,-0.3 -0.1,-0.3 -0.2,-0.8 -0.1,-0.5 -0.2,-0.9 -0.2,-1.5 0,-1.2 0,-2.5 -0.1,-3.4 -0.1,-0.6 -1.7,-1.9 -2.1,-2.2 -0.3,-0.2 -0.6,-0.6 -1.1,-1.1 -0.4,0 -0.9,-0.2 -1.5,-0.5 -0.2,-0.1 -0.2,0.1 -0.6,0 -0.3,-0.1 -0.6,-0.2 -0.8,-0.3 -0.5,-0.2 -1,-0.2 -1.3,-0.4 -1.2,-0.7 -1.4,-1.5 -1.4,-1.5 0,0 0.6,0.4 1.4,0.6 -0.3,-0.4 -2.7,-1.8 -3.3,-2.1 -0.3,-0.1 -0.9,-0.4 -1.6,-0.6 -0.4,-0.1 -1.4,-0.1 -1.9,-0.2 -0.5,0 -1.4,-0.1 -2,-0.1 -0.3,0 -1.1,0.6 -2,0.7 -0.3,0 -0.8,0.2 -1.4,0.3 C 99.1,7.8 98.6,7.8 97.9,8 97.1,8.2 96.3,8.5 95.4,8.8 95,9 94.5,9 94.1,9.2 c -0.4,0.4 -1,0.6 -1.4,0.7 -2.7,1.3 -6.1,2.7 -6.1,2.7 0,0 -0.1,0.1 0.1,0.2 1.1,0.1 4,1.7 4.2,1.7 0.2,0 0.1,0.2 0.1,0.4 0,0.1 -0.4,-0.1 -0.8,-0.1 -0.9,-0.2 -4,-0.5 -5.1,-0.4 -0.4,0 -1.4,0.7 -2.1,1.2 -0.2,0.2 -0.7,0.3 -1.1,0.5 -1.6,0.6 -2.1,0.3 -2.2,0.5 0,0 -0.3,1 -1,1.7 -0.6,0.6 -0.9,1.6 -0.3,3.1 0.5,1.4 0,2.9 -0.1,3.3 -0.1,0.4 -0.6,1 0,2 0.7,1.3 0.2,1.7 1.8,3.1 0.6,0.5 2,1.7 3.7,3.1 1,0.8 2,1.8 3,2.6 0.9,0.7 1.8,1.3 2.5,1.7 0.5,0.3 0.9,0.7 1.1,0.9 0.5,0.4 1.1,1 2.1,1.5 1.5,0.7 3.2,1.9 4.8,3.1 2.1,1.6 4.9,4 6.3,5.4 0.4,0.4 0.5,0.9 0.4,1.1 -0.2,0.2 -1.1,0.2 -1.1,0.2 0,0 0,0 0.2,0.1 0.2,0.1 0.8,6.7 0.8,6.7 0,0 0.2,1.8 -1.6,2 -0.8,0.1 -1.8,0 -2.8,-0.2 -0.9,-0.2 -2,-0.6 -3.1,-1.3 -0.1,-0.1 -0.3,0.1 -0.3,-0.1 0,-0.1 -0.5,-0.4 -1,-0.8 -0.5,-0.5 -1,-1 -1.3,-1.7 h -1.3 c 0,0 -0.3,-0.2 -0.3,-0.5 0.1,-0.8 0.7,-2.1 0.8,-2.8 0.1,-0.4 0,-1 0,-1.8 0.1,-0.9 0.4,-2.6 0.4,-2.6 0,0 -0.2,-1.7 -1.8,-0.1 -1.6,1.6 -3.2,3.6 -4.1,4.7 -0.9,1.2 -3.6,4.3 -4.7,5.2 -1.1,0.9 -1.4,0.8 -1.6,1.7 0,0 0,0.4 -1.7,0 -0.8,-0.2 -2.2,0.8 -3.3,1.8 -1.2,1.2 -2.9,2.7 -2.9,2.7 0,0 -1.1,1.1 0.2,1.4 z M 103,58.6 c 0.2,-0.1 0.2,-0.4 0.4,-0.6 0.2,-0.3 0.6,-0.7 0.7,-1.3 0.2,-1.4 0.2,-2.2 0.2,-2.2 0,0 0.3,2.5 0.3,3.1 0,0.6 -0.9,1.7 -2.1,1.5 0,0 -0.2,-0.2 0.5,-0.5 z"
       id="path77" /><path
       class="st0"
       d="m 135,137.2 c -0.2,-0.3 -0.5,-0.5 -0.5,-0.5 -0.5,-0.6 -0.7,-0.9 -1.2,-1.4 -1.2,-1.3 -1.9,-2.6 -2.5,-3.5 -0.8,-1.4 -1.2,-2.5 -1.6,-3.3 -0.1,-0.2 -0.1,-0.6 -0.2,-0.9 -0.4,-1 -0.5,-2.5 -0.4,-3.9 0,-0.2 -0.1,-0.2 -0.1,-0.4 0,-0.3 -0.1,-0.6 -0.1,-0.9 0,-0.3 0.1,-0.7 0,-1 0,-1.2 0,-2 0,-2 l -0.4,1.1 -0.3,0.6 -0.1,0.7 c -0.3,-1 0.7,-3.8 0.7,-3.8 0,-0.6 0.2,-1.5 0.4,-2.4 0.1,-0.4 0.1,-0.9 0.2,-1.4 1.3,-5.2 3.8,-13.2 4,-13.9 0.4,-1.1 0.1,-0.9 0.1,-0.9 0,0 -0.3,-0.3 -0.5,-0.7 -0.1,-0.2 -0.2,-0.6 -0.4,-0.8 -0.3,-0.5 -0.5,-1 -0.8,-1.5 -0.3,-0.5 -0.7,-0.9 -0.8,-1.1 -0.2,-0.3 -0.1,-0.4 -0.5,-0.4 -0.3,0 -0.7,0.2 -1.2,0.3 -0.2,0.1 -0.6,0.2 -1.1,0.2 -0.7,0 -1.6,-0.2 -2.1,-0.5 -0.2,-0.2 -0.5,-0.3 -0.7,-0.5 -0.3,-0.2 -0.5,-0.4 -0.7,-0.4 -0.2,0 -0.5,0.3 -0.7,0.4 -0.7,0.5 -1.7,0.9 -1.7,0.9 -0.2,1.1 0.6,1.9 0.5,3.4 -0.1,1 -0.7,5.5 -1.3,10.2 -0.1,1 -0.2,2.2 -0.3,3.4 0,0.8 -0.2,1.7 -0.2,2.6 0,0.8 0.1,1.6 0.1,2.4 0,1.2 0.2,2.4 0.2,3.5 0,0.9 -0.2,1.7 -0.2,2.5 -0.1,1 0.2,1.7 0.4,2.4 0.2,0.6 0.2,1.2 0.5,1.5 0.5,0.7 1.2,1.2 1.5,1.5 0.1,0.1 0.2,0.2 0.2,0.3 0,0 0.1,0.1 0.1,0.1 0.2,0.3 0.2,0.5 0.2,0.5 l -0.8,1.7 c -0.1,0.7 0.6,1.3 0.6,1.3 0.9,0.6 3.4,4.3 3.4,4.3 0,0 0.9,0.1 2.6,0.8 0.8,0.3 1.4,0.6 1.8,0.8 0.3,0.1 0.7,0.2 1.2,0.5 0.3,0.1 0.6,0.4 1,0.6 0,0 0.4,-0.1 0.9,-0.3 0.5,-0.1 0.6,-0.1 0.7,-0.3 0.2,-0.4 0.2,-0.8 0.2,-1.1 0.2,-0.4 0,-0.5 -0.1,-0.7 z m -11.2,-32.4 c -0.1,0.4 -0.5,1.2 -0.7,1.9 -0.1,0.3 -0.1,0.4 -0.2,0.7 -0.2,0.6 -0.4,1.1 -0.6,1.7 -0.1,0.4 -0.2,0.6 -0.3,1 -0.2,1.8 -0.3,3.1 -0.3,3.1 0,-0.5 0,-2.6 0.1,-3.5 0.1,-0.6 0.2,-1.3 0.3,-1.9 0.1,-0.7 0.2,-1.4 0.4,-2 0.1,-0.5 0.3,-0.8 0.4,-1.3 0.2,-0.7 0.2,-1.4 0.3,-1.7 0.2,-0.4 0.3,-0.8 0.3,-1.6 0,-1 0.2,-2.1 0.1,-2.9 -0.1,-0.8 -0.2,-1.5 -0.2,-1.5 0,0 0.1,0.2 0.4,0.9 0.1,0.4 0.2,1.6 0.3,3 0.1,1.5 0.1,3.1 -0.3,4.1 z"
       id="path79" /><path
       class="st0"
       d="m 190.4,97.4 -1,-1.5 c 0,0 -0.5,0.4 -0.8,0.5 -0.3,0.1 -0.8,0.2 -1.1,-0.6 -0.3,-0.8 -0.5,-1.7 -0.5,-1.7 0,0 -0.8,-0.3 -1.7,-0.7 -0.2,-0.1 -0.4,-0.1 -0.6,-0.2 -0.2,-0.1 -0.5,-0.2 -0.7,-0.4 -0.4,-0.2 -0.7,-0.4 -0.9,-0.5 -0.4,-0.2 -0.7,-0.4 -1,-0.2 -0.3,0.2 -0.6,0.4 -0.6,0.4 l -0.4,0.3 c 0,0 0.1,0.5 0.3,1.4 0.2,0.6 0.9,1.9 1.4,3.4 0.2,0.5 0,0.9 0,1.4 0,0.5 0.2,1.1 0.3,1.6 0.1,0.4 -0.1,1.1 -0.2,1.4 -0.2,0.9 -1.8,6.3 -3,8.7 -1,2 -3,5.1 -3.7,7.3 -0.3,0.8 -0.4,1.5 -0.6,2.1 -0.3,0.9 -0.7,1.3 -0.6,1.4 0.1,0.1 1.1,0.1 1.1,0.1 0,0 1,0.6 1.1,0.9 -0.3,-0.2 -0.6,-0.3 -1,-0.4 -0.2,-0.1 -0.5,0 -0.7,0 -0.3,0 -0.5,-0.1 -0.8,-0.1 -0.1,0 -0.2,0.2 -0.2,0.2 -0.1,-0.2 -0.9,-0.8 -1,-1.2 -0.1,-0.2 0.1,-0.3 0,-0.6 -0.3,-0.6 -0.8,-1.8 -1,-2.6 0,0 1.3,2.1 1.4,2.3 -0.2,-2.3 -0.1,-3.2 -0.3,-4.4 -0.2,-1.3 -0.5,-1.9 -0.7,-3.2 -0.2,-1.3 -0.2,-2.6 -0.8,-4.2 -0.1,-0.4 -0.1,-0.8 -0.1,-1.3 -0.1,-0.4 -0.3,-0.7 -0.3,-1.1 -0.1,-1.1 -0.2,-2.1 -0.2,-2.3 0,0 -0.6,1.2 -0.2,3.2 0.1,0.5 0.1,1 0.1,1.5 0.1,1 0.2,2.1 0.2,2.1 0,0 -0.4,-2 -0.6,-2.9 -0.1,-0.3 -0.4,-0.8 -0.5,-1.6 -0.1,-0.4 0,-1.1 0,-1.5 -0.1,-0.8 -0.1,-0.7 0,-1.1 0.1,-0.4 0.4,-0.9 0.9,-1.3 0.1,-0.1 0.3,-0.2 0.3,-0.2 l 0.1,-1.4 v -1.3 c 0,0 -0.4,-0.4 -0.9,-0.8 -0.5,-0.3 -0.9,-0.5 -1.2,-0.8 -0.6,-0.4 -0.5,-0.8 -0.8,-1.1 -0.7,-0.8 -1.5,-1.3 -1.8,-1.4 -0.4,-0.1 -0.7,0.3 -1.4,0.6 -0.8,0.4 -1.9,0.7 -1.9,0.7 l 0.6,-0.5 c 0,0 0.5,-0.3 0.8,-0.7 0.2,-0.2 -0.1,-0.3 -0.3,-0.5 -0.3,-0.2 -0.6,-0.6 -0.6,-0.6 l -3.7,-0.2 c 0,0 0,0.5 0.1,0.9 0.1,0.4 1.3,2.4 1.7,4 0.4,1.3 1.2,3.6 1.5,4.7 0.1,0.5 0.4,1.2 0.5,2.4 0.1,1 0,2.3 0.3,4 0.2,1 0.4,2.1 0.6,3.3 1.3,5.9 3.2,13.2 3.3,13.5 0.7,1.1 0.9,0.3 1.3,1.1 0.1,0.2 0.3,0.9 0.6,1.7 0.1,0.2 0,0.5 0.1,0.8 0.5,1.1 0.8,2.1 1.2,2.7 0.3,0.5 0.9,1.6 1.7,2.4 0.8,0.8 1.7,1.5 2.2,1.1 0,0 1.7,-2.2 2.3,-2.5 v -0.8 c 0,0 -1,1.6 -2.3,1.1 0,0 -0.2,-0.2 0,-0.2 0.8,-0.1 0.9,-0.2 2.2,-2.2 0.2,-0.3 0.5,-0.3 0.8,-0.7 0.4,-0.6 0.7,-1.3 1.2,-2.1 0.9,-1.6 2.1,-3.5 3.1,-4.9 1.3,-1.8 2.1,-1.7 2.5,-2.1 0.1,-0.1 0.3,-0.3 0.4,-0.7 0.1,-0.3 0,-0.6 0.1,-0.9 0.3,-1.5 0.5,-3.4 1,-4.7 0.7,-2 0.9,-5.2 1.1,-5.7 0.2,-0.5 0.3,-0.8 0.3,-0.9 0,-0.4 -0.4,-0.5 -0.1,-0.7 0.2,-0.2 1.2,0 1.9,-0.5 0.7,-0.5 1.7,-2.4 2.1,-4.5 0.4,-2.1 0.5,-3.4 0.5,-3.4 l -1,-1.2 z"
       id="path81" /><path
       class="st0"
       d="m 115.8,129.1 c -0.1,-0.9 -0.4,-1.6 -0.5,-2.3 -0.1,-0.7 -0.2,-1.3 -0.3,-1.8 -0.5,-4.5 -0.6,-5.7 -0.8,-11.9 -0.1,-1.9 -0.3,-4.1 -0.3,-7.1 0,-0.4 -0.1,-1.1 -0.1,-1.6 0,-0.2 0.3,-0.7 0.3,-0.9 0,-0.2 0,-0.5 0,-0.7 0,0 -0.2,-1 -0.1,-2.9 0,-0.6 0.1,-1.2 0.1,-1.8 0.1,-1 0.1,-1.9 0.1,-2.2 0,-1 0.2,-2.8 0.5,-4.2 0.5,-2.1 0.7,-4.2 0.7,-5.6 0.1,-1.3 0.2,-2.5 0,-2.4 -0.2,0.1 -0.8,1 -1.3,1.5 -0.3,0.3 -0.7,0.2 -0.7,0.2 -0.1,-0.3 -0.4,-0.5 -0.4,-0.5 0,0 -2.7,0.5 -4.4,0.9 -0.4,0.1 -0.7,0 -1,0.2 -1.1,0.8 -1.7,2.5 -1.9,3.7 -0.2,1.3 -0.4,2.4 -0.9,3.8 -0.3,0.7 -0.6,1.1 -1.1,2 -0.2,0.3 -0.4,0.8 -0.6,1.1 -0.5,0.9 -1,1.5 -1,1.5 0,0 0,-0.4 1,-2.3 1,-2.2 1.2,-3.8 1.2,-3.8 -0.1,0.4 -1.4,2.8 -2.6,4.9 -0.5,0.8 -1.1,1.6 -1.5,2.4 -0.5,0.9 -0.5,1.3 -0.9,2.1 -0.7,1.3 -1.3,2.3 -1.5,2.7 -0.7,1.3 -1.4,2.3 -1.7,4.2 -0.1,0.5 -0.3,0.9 -0.6,1.4 -0.1,0.2 -0.3,0.4 -0.4,0.6 -0.1,0.2 -0.1,0.5 -0.3,0.7 -0.6,1 -1.3,1.8 -1.3,1.8 0,0 0,-0.2 0.3,-0.7 0.2,-0.4 0.6,-0.8 0.7,-1.2 0.2,-0.4 0.1,-0.8 0.2,-1.1 0.1,-0.2 0.2,-0.5 0.3,-0.9 0.1,-0.5 0.1,-1 0.2,-1.5 0.1,-0.6 0.2,-1.1 0.2,-1.1 -0.6,0.7 -1.6,3.2 -2.4,4.9 -0.4,0.9 -0.9,1.5 -1,1.6 -0.2,0.1 -0.3,-0.8 -0.3,-0.8 0,0 -0.3,-1.3 -0.6,-3.9 -0.1,-0.9 -0.1,-2.2 -0.3,-3.4 -0.1,-0.8 -0.1,-1.9 -0.2,-3.1 -0.1,-1 -0.2,-2 -0.2,-3.2 0,-1.3 0.1,-2.8 0.2,-4 0,-3.7 0.1,-6.8 0.1,-6.8 L 91,84.9 89.9,85.1 88.7,85 c -0.8,0.1 -4.8,0.6 -4.8,0.6 0,0.6 0.3,0.6 0.4,1.2 0.1,0.6 0.5,1.2 0.7,1.5 0.2,0.3 0,1.7 -0.2,1.9 -0.2,0.2 -0.5,0.1 -0.8,0.5 -0.3,0.4 -0.1,1 0,2.2 0,0.7 0.2,3.1 0.3,5.3 0,0.8 0,1.9 0.1,2.7 0.1,2.1 0.2,3.6 0.2,3.6 l 0.4,-2.3 c 0,0 -0.4,6.1 0.9,10.3 0.1,0.3 0.1,0.7 0.1,1.1 0.1,0.5 0.2,1.1 0.3,1.7 0.1,1.6 -0.1,3.3 -0.1,3.3 -0.1,1.1 -0.3,1.3 -0.4,2 -0.1,1.5 0.1,3.6 0.2,4.5 0.1,0.6 0.3,1.7 0.4,2.6 0.1,1.2 0.1,2.4 0.1,2.7 0,0.4 0.1,1 0.1,1 l 2.2,-3.4 1.2,-1.6 c -0.4,1 -1.2,2.7 -1.8,4 -0.1,0.3 -0.2,0.7 -0.4,1 -0.3,0.5 -0.5,0.7 -0.7,1.2 -0.7,1.1 -1.5,2.1 -1.7,2.3 -0.4,0.4 0,1.2 0.3,1.5 0.2,0.3 0.1,4.5 0.2,4.8 0.1,0.3 0.3,1 0.8,0.5 0.4,-0.3 1,-0.5 1.9,-0.9 0.8,-0.4 2.1,-0.8 2.3,-1 0.1,-0.1 0.2,-0.5 0.3,-0.7 0.2,-0.3 0.5,-0.6 0.7,-1 0.4,-0.7 0.7,-1 1,-1 0.3,0 1,-0.4 1.3,0 0.1,0.1 0.8,-0.1 1.1,-0.8 0.3,-0.6 0.8,-2.1 1.2,-3.2 0.2,-0.6 0.4,-1.8 0.6,-2.5 0.2,-0.8 0.3,-1.2 0.4,-2.1 0.1,-1.5 0.2,-3 0.6,-5.2 0.2,-1.1 0.6,-2.4 0.8,-3.6 0.3,-1.4 0.3,-2.8 0.5,-3.9 0.3,-1.7 0.9,-3.4 0.9,-3.4 -0.4,0.9 -2.3,7.5 -2.3,7.5 0.3,-2.5 1.6,-7.9 2.7,-10.5 0.6,-1.4 0.8,-1.6 1.4,-2.9 0.3,-0.8 0.6,-1.6 0.9,-2.3 0.4,-0.8 0.6,-1.7 0.9,-2.3 0.5,-1.2 1,-1.9 1,-2.1 0.2,-0.7 1.1,-1.6 1.3,-1.3 0.1,0.2 0.4,1 0.9,4.7 0.1,0.8 0.4,1.9 0.5,3.1 0.1,1 -0.1,1.9 0,3.1 0.1,0.9 0.2,1.9 0.3,3 0.1,1.7 0.2,3.1 0.3,4.2 0.1,3 0,6.1 0.1,7.7 0.2,2.7 0.7,5.2 0.9,7.3 0.4,3 0.7,4.2 1,5.5 0.1,0.8 0.3,1.8 0.4,2.5 0.5,2.3 1.1,4.1 1.4,4.3 0.4,0.2 0.9,0.1 0.9,0.1 -0.1,0.2 -0.5,0.5 -0.8,1 -0.3,0.5 0,1.5 0.1,2.8 0.1,0.4 0.5,1.4 0.6,3.2 0.1,1.5 0.1,1.7 0.1,1.7 0.4,-0.3 0.8,-0.7 1.1,-1.1 0.2,-0.3 0.5,-0.5 0.7,-0.9 0.9,-1.6 1.5,-1.8 1.8,-3.7 0.1,-0.4 0.3,-0.9 0.4,-1.4 0.1,-0.7 0.2,-1.4 0.3,-1.9 0.2,-1.6 0.3,-3.2 -0.1,-7 -0.6,-2.7 -1,-5.3 -1.3,-7.6 z"
       id="path83" /><path
       class="st0"
       d="m 159.1,130.6 c -0.2,0.2 -0.9,0.6 -1.2,0.7 -0.3,0.1 -0.6,0 -0.9,0 -0.7,0 -1.4,0.1 -1.9,0 -1.2,-0.3 -1.8,-0.2 -2.6,-0.4 -0.8,-0.1 -1.4,-0.5 -2.1,-0.9 -0.6,-0.3 -1.1,-0.5 -1.1,-0.5 0,0 -1.3,-0.1 -1.6,-0.5 l 1.5,-0.3 c 0,0 -0.3,-0.3 -0.9,-0.8 -0.1,-0.1 -0.2,-0.4 -0.4,-0.6 -0.2,-0.2 -0.5,-0.4 -0.7,-0.6 -0.3,-0.4 -0.4,-0.8 -0.7,-1.3 -0.2,-0.3 -0.2,-0.9 -0.3,-1.2 -0.1,-0.5 -0.3,-0.8 -0.3,-1.4 0,-1.6 0.2,-2.3 0.7,-2.9 0.9,-1 1.5,-1.3 3,-1.7 1.2,-0.4 2.2,-0.4 3.3,-0.7 0.3,-0.1 1,-0.5 1.5,-0.8 0.6,-0.4 1.3,-0.8 1.9,-1.3 1.8,-1.7 2.5,-2.2 2.5,-2.2 0,0 0.3,-2 0.5,-2.9 0.1,-0.9 0.6,-3.7 0.5,-4.1 0,-0.3 -1,-2 -1,-2 l -2.2,-4 c 0,0 -0.2,-0.3 -0.5,-0.3 -0.3,0 -0.6,0 -0.7,-0.3 -0.1,-0.2 -0.3,-0.7 -0.3,-1 -0.1,-0.6 -0.2,-1 -0.3,-1.5 -0.1,-0.3 -0.3,-0.4 -0.4,-0.6 -0.4,-0.6 -0.9,-1.5 -1,-1.5 -0.1,0 -0.6,0.1 -1.2,-0.1 -0.5,-0.1 -1,-0.5 -1,-0.4 l -1,0.6 c 0,0 -1,0.7 -1.6,1.1 -0.6,0.4 -1.7,1.8 -2.8,2.6 -1.8,1.3 -2.2,1.3 -3.6,2.5 -0.9,0.8 -1.7,1.8 -2,2.6 -0.4,0.9 -0.9,2.2 -1.5,3.7 -0.1,0.4 -0.3,1 -0.4,1.3 -0.1,0.4 -0.3,0.6 -0.4,1 -0.3,0.9 -0.3,1.5 -0.3,1.5 h 0.7 c 0,0 0.3,0.1 0.4,0.2 -0.2,0.1 -0.8,0.1 -0.9,0.3 -0.2,0.2 -0.6,0.9 -0.8,1.8 -0.2,0.8 -0.1,1.8 0,2.8 0.1,1.5 0.2,3 0.4,3.5 0.3,0.6 0.3,1.7 0.5,3.1 0.2,1.7 0.6,3.8 1.3,5.3 1.5,3.4 2.1,3.8 3.1,4.5 1.6,1 2.6,3.5 5.7,3.7 2.1,0.1 3,0.4 4.1,0.1 0.4,-0.1 0.4,-0.5 0.7,-0.7 0.4,-0.3 0.7,-0.6 1.1,-0.7 0.3,-0.1 0.7,0.2 0.9,0.3 0.4,0.2 0.5,-0.2 1.6,-0.7 0.6,-0.3 1.7,-0.8 1.7,-0.9 0.3,-0.2 0.5,-0.5 0.7,-0.9 0.2,-0.2 0.3,-0.4 0.5,-0.6 0.2,-0.2 0,-0.1 0.1,-0.4 0.1,-0.2 0.2,-0.5 0.3,-0.7 0.7,-1.2 0.2,-1.3 -0.6,-0.8 z m -12.9,-18.9 c 0.1,-0.4 0.4,-1.2 0.5,-1.7 0.1,-0.5 0,-0.7 0.1,-1.2 0.4,-1.5 0.8,-3 1.2,-4.2 0.6,-1.7 0.8,-2 1.4,-2.7 0.7,-0.8 2.7,1.3 3.6,2.5 0.2,0.3 0.3,0.2 0.4,0.3 0.1,0.1 0.1,0.3 0.2,0.4 0.3,0.4 0.2,0.6 0.2,0.8 0,0.3 0.2,1.4 0.2,1.4 v 0.6 l 0.1,0.3 -0.4,-0.2 c -0.2,-1.1 -0.8,-2.6 -0.8,-2.6 -0.4,0.9 -0.8,2.3 -0.9,3.7 0,0.5 -0.1,0.9 0,1.4 0,0.3 0.2,0.7 0.1,0.9 -0.2,0.3 -0.1,0.6 -0.3,0.8 -0.6,0.8 -1.9,1.3 -2.5,1.6 -0.4,0.2 -1.4,0.4 -2.4,0.4 -0.4,0 -0.4,0.5 -0.4,0.5 l -0.1,2 c 0,0 -0.3,-0.4 -0.3,-1.3 0.1,-0.8 -0.3,-1.7 0.1,-3.7 z"
       id="path85" /><path
       class="st0"
       d="m 168,48.8 c 0,0.2 0.1,0.4 0.2,0.6 0,0.1 0,0.3 0.1,0.3 0.2,-0.2 0.3,-0.5 0.4,-0.7 0.2,0.7 0.3,1.2 0.4,1.8 0.1,-0.1 0.1,-0.3 0.3,-0.4 0.1,0 0.2,0 0.3,0 0,-0.3 0.1,-0.6 0.2,-0.9 -0.1,-0.2 -0.2,-0.2 -0.3,-0.4 0,-0.1 0.1,-0.2 0.2,-0.2 0.1,0 0.2,0 0.2,0 0.1,-0.1 0.2,-0.2 0.3,-0.3 0.1,0 0.2,0.2 0.3,0.2 0,-0.1 0,-0.2 0,-0.2 0.5,-0.2 0.8,-0.6 1.2,-0.9 0.1,-0.1 0.1,-0.1 0.2,-0.2 0,0 0.1,0 0.1,-0.1 0.1,-0.1 0.1,-0.2 0.2,-0.3 0.1,0 0.1,0 0.2,-0.1 0.2,-0.1 0.1,-0.4 0.2,-0.6 0.1,-0.1 0.3,-0.2 0.4,-0.3 0.1,-0.4 0.4,-0.5 0.5,-0.8 0,0 0.1,0 0.1,0 0.1,-0.1 0.2,-0.2 0.2,-0.4 -0.2,-0.2 -0.4,-0.5 -0.6,-0.6 -0.1,-0.1 -0.3,-0.1 -0.4,-0.1 -0.1,-0.1 -0.3,-0.1 -0.3,-0.2 0,-0.1 0.1,-0.2 0.2,-0.2 0.2,-0.1 0.4,-0.3 0.6,-0.2 1.1,-0.1 2.1,0.1 3.1,0.3 0.1,-0.1 0.3,-0.2 0.4,-0.3 -0.7,-0.3 -1.5,-0.5 -2.5,-0.3 -0.1,0 -0.2,0 -0.2,0 0,-0.2 0.1,-0.3 0.2,-0.5 0.1,-0.4 0.1,-1.1 0,-1.6 0,-0.1 -0.1,-0.2 -0.1,-0.3 0.1,-0.3 0.4,-0.1 0.6,-0.1 0.9,0.3 1.8,0.6 2.7,0.8 0.1,-0.6 0.2,-1.1 0.4,-1.7 -0.2,0.2 -0.2,0.6 -0.3,0.8 -0.3,0.1 -0.7,0.2 -1,0.4 -0.3,-0.2 -0.6,-0.4 -0.9,-0.5 0,-0.1 -0.1,-0.1 -0.1,-0.1 0,-0.1 0,-0.1 0,-0.1 -0.1,-0.1 -0.2,-0.1 -0.3,-0.3 0,-0.2 0.2,-0.1 0.4,-0.1 0.2,0 0.4,-0.2 0.6,-0.1 0.2,-0.1 0.3,-0.2 0.5,-0.3 0.1,-0.1 0.2,-0.2 0.4,-0.3 0.1,0 0.2,0 0.3,0.1 0.1,-0.1 0.1,-0.2 0.2,-0.3 0.3,-0.2 0.6,-0.4 0.9,-0.6 0.1,0 0.1,-0.1 0.2,-0.1 0.2,0.1 0.1,0.3 0,0.4 -0.2,0.4 -0.2,0.9 -0.3,1.4 -0.2,0.6 -0.3,1.2 -0.4,1.9 0.1,0.2 0.3,0.1 0.5,0.1 0.1,0.1 0.2,0.3 0.4,0.3 0,-0.2 0.1,-0.4 0.1,-0.6 0.4,-0.3 0.8,-0.6 1.2,-0.9 0,-0.1 0,-0.2 0,-0.2 0.3,-0.3 0.6,-0.6 0.9,-0.9 0,-0.2 -0.1,-0.4 0,-0.6 0.2,-0.3 0.4,-0.6 0.8,-0.8 0.7,0 0.9,-0.5 1.2,-0.8 -0.1,-0.4 -0.3,-0.8 -0.3,-1.1 0.3,0 0.7,0.1 1,-0.1 0.1,-0.1 0.2,-0.2 0.3,-0.2 0.2,0.1 0.4,0.3 0.6,0.3 0.2,0 0.3,-0.2 0.4,-0.4 0.2,-0.1 0.3,-0.3 0.4,-0.4 0,-0.2 0,-0.3 0,-0.4 0.4,-0.3 0.9,-0.5 1.2,-0.8 0.1,-0.3 0.2,-0.7 0.4,-1 0,-0.1 0,-0.2 0.1,-0.3 0.2,-0.2 0.4,-0.3 0.7,-0.4 0.6,-0.1 1.2,-0.2 1.8,-0.2 0.1,0.1 0.2,0.3 0.3,0.4 0.1,-0.1 0.1,-0.3 0.2,-0.4 0.1,-0.2 0.1,-0.4 0.2,-0.5 0.3,0.1 0.7,0.2 1.1,0.1 0.1,0 0.3,0.1 0.4,0.2 0.2,0 0.4,-0.1 0.5,-0.1 0.5,0.1 1.1,0.2 1.7,0.2 -0.9,-0.6 -2,-1 -3,-1.6 -0.6,-0.1 -1.3,-0.1 -1.8,-0.3 -0.6,-0.1 -1.1,-0.2 -1.7,-0.3 -0.6,-0.1 -1.2,-0.1 -1.8,-0.2 -0.5,-0.2 -1,-0.3 -1.5,-0.4 0,0 0,0 0,0 -0.6,0.1 -1.2,0.2 -1.8,0.3 -0.6,0.2 -1.1,0.3 -1.7,0.4 -1.1,0.3 -2.2,0.6 -3.1,1.1 -0.1,0 -0.1,0 -0.2,0.1 -0.1,0.1 -0.1,0.4 -0.2,0.6 -0.4,0.2 -0.8,0.5 -1.3,0.7 -0.3,0 -0.5,-0.1 -0.8,-0.1 -0.1,0 -0.2,0.1 -0.3,0.2 -0.7,0.4 -1.4,0.9 -2,1.4 -0.4,0.3 -0.7,0.5 -1.1,0.8 -0.4,0.3 -0.7,0.5 -1,0.9 -0.1,0.1 -0.1,0.3 -0.1,0.5 -0.2,0.5 -0.6,0.9 -0.8,1.4 -0.2,0.2 -0.3,0.5 -0.4,0.7 -0.1,0.2 -0.3,0.4 -0.4,0.7 0.2,0.1 0.3,0.1 0.5,0.2 0.1,-0.2 0.1,-0.3 0.2,-0.5 0.3,0 0.6,-0.1 0.9,-0.1 0.1,-0.2 0.3,-0.4 0.3,-0.7 0.1,-0.2 0.3,-0.4 0.7,-0.5 0,-0.3 0.1,-0.5 0.3,-0.6 0.4,-0.3 1.1,0 1.5,0 0.4,0 0.8,-0.1 1.1,-0.1 0.4,-0.2 0.5,-0.5 0.8,-0.7 0.1,-0.1 0.2,-0.1 0.3,-0.1 0.1,0 0.2,0 0.2,0 0.3,-0.1 0.4,-0.5 0.7,-0.7 0.2,0 0.4,0.1 0.6,0.1 0.8,-0.3 1.6,-0.6 2.5,-0.8 0.1,0 0.3,-0.1 0.4,0 0,0.1 -0.1,0 -0.2,0.1 -0.1,0 -0.1,0.1 -0.2,0.1 -0.4,0.2 -0.7,0.3 -1.1,0.5 -0.5,0.2 -1,0.5 -1.5,0.7 -0.3,0.3 -0.7,0.5 -1,0.7 -0.1,0.1 -0.2,0.2 -0.3,0.2 -0.3,0.2 -0.6,0.1 -1.1,0.2 -0.7,0.4 -1.4,0.7 -2.1,1.1 -0.2,0.2 -0.4,0.5 -0.6,0.7 -0.3,0.1 -0.5,0.2 -0.8,0.3 -0.8,0.7 -1.5,1.4 -2.3,2.1 -0.1,0 -0.2,0 -0.3,0 -0.1,0.1 0,0.1 -0.1,0.2 -0.3,0.2 -0.5,0.6 -0.8,0.9 0,0.4 -0.1,0.6 -0.2,1 -0.2,0.3 -0.4,0.7 -0.4,1.1 0.3,1.1 0.7,2.1 1.1,3.1 -0.2,0 -0.4,0.4 -0.4,0.8 z m 0.2,-0.2 c 0,-0.1 0,0 0,0 z"
       id="path87" /><path
       class="st0"
       d="m 135.7,83.3 h -0.6 c 0,0 -0.4,0.3 -0.8,0.3 -0.4,0 -0.6,0.4 -1,0.5 -0.4,0.1 -1.1,0.2 -1.3,-0.3 -0.2,-0.3 -0.5,-1.2 -0.5,-1.2 0,0 -2.2,-0.1 -3,0.2 -0.8,0.2 -3.9,3.5 -3.9,3.5 -0.2,0.9 5.7,4.1 7.8,4.4 1.5,0.2 2,0.2 2.4,-0.6 0.2,-0.4 0.9,-2.2 1.3,-2.9 0.4,-0.9 0.5,-1 0.3,-1.7 -0.2,-0.7 -0.7,-2.2 -0.7,-2.2 z"
       id="path89" /><path
       class="st0"
       d="m 90.3,68.3 c -0.3,0.1 -0.9,0.1 -1.5,0.3 -0.5,0.1 -1.2,0.3 -1.2,0.3 l -1.1,1.8 -2.5,0.2 -3.7,3.6 V 75 l 1,1.1 c 0.2,0.5 2.4,-0.1 3.6,-0.1 1.1,-0.1 4.3,-0.5 5.1,-0.3 0.3,0.1 1.4,-0.2 1.4,-0.2 l 0.3,-0.6 0.9,-3.1 c 0,0 0.1,-1.6 0.2,-2.7 0.1,-1 -0.1,-1 -0.1,-1 0,0 -2.1,0.1 -2.4,0.2 z"
       id="path91" /><path
       class="st0"
       d="m 143.7,77.3 c 0,0 0.1,0.2 0.3,0.3 0.7,0 8.3,0.7 8.8,0.3 l -2.5,-0.3 11.1,-0.4 c 0,0 1.6,-0.5 2,-0.8 0.6,-0.4 2,-1 2,-1 v 0.7 l -0.7,0.6 c 0,0 -0.2,0.3 -0.5,0.5 -0.2,0.2 -0.5,0.4 -0.6,0.6 0,0.1 0.1,0.2 0.2,0.2 0.9,0.5 1.6,0.8 2.1,1.1 0.2,0.2 0.7,0.3 0.7,0.3 0,0 0.9,0 1.1,0 0.3,-0.1 0.3,-0.3 0.5,-0.3 0.8,-0.1 4.8,-0.2 4.8,-0.2 0,0 0.4,-0.1 1.8,-0.8 1.5,-0.8 2.5,-1.1 2.9,-1.3 0.5,-0.2 1.5,-0.6 2,-0.5 0.6,0.1 1,0.3 1.5,0.3 0.4,0 3.8,0.2 4.5,0 0.7,-0.2 0.5,-0.4 1.3,-0.4 0.4,0 3.7,-0.3 6.8,-0.3 1.6,0 4.2,-0.4 5.9,-0.5 0,0 0.9,-2.3 1,-3.4 0,0 -0.2,0 -0.9,0 -2.3,-0.1 -3.7,0.7 -5,0.8 -2.6,0.2 -4.5,0.3 -5.1,0.3 0,0 0.1,-0.1 0.9,-0.3 0.7,-0.2 2.8,-0.6 3,-0.7 0.2,-0.1 -4.9,0.1 -4.9,0.1 0,0 -1.6,0 -4.2,0.5 -1.2,0.3 -2.5,0.4 -4.8,0.5 -2.6,0.1 -5.9,0.4 -6.5,0.2 -0.8,-0.3 -3,-0.5 -2.7,-0.6 0.3,0 1,-0.2 1,-0.2 l 2.5,0.1 c 0,0 -2,-0.5 -2.5,-0.6 -0.6,-0.1 -1.2,-0.9 -3.3,-0.4 -2.4,0.5 -8,0.3 -9.1,0.4 -1.1,0.1 -1.8,0.3 -2.2,0.5 -0.4,0.2 -2.4,0.5 -4.2,0.5 -4.4,0 -8.4,0.4 -13,0.4 -1.3,0 -2.8,0.2 -3.9,0.3 -1.5,0.1 -2.7,0 -3.1,0 -1.8,0.1 -2.7,0.2 -3.3,0.2 -1,-0.1 -1.9,0.2 -5,0.2 -1.1,0 -6.6,0.7 -7.2,0.9 -0.7,0.2 -4,0.8 -7.2,0.9 -2,0.1 -5.9,-0.1 -8.1,-0.2 1.1,0 2.3,-0.3 4.6,-0.6 1,-0.1 1.7,-0.1 3.1,-0.1 0.9,0 1.6,-0.1 2,-0.1 0.7,0.1 2.1,0.2 3.1,0.2 1.8,-0.1 2.9,-0.5 5.3,-0.7 0,0 -1.4,0 -3.5,0.1 -1,0 -1.8,-0.3 -4.8,-0.2 -2.2,0.1 -4.8,0.2 -7.3,0.5 -1.2,0.1 -2.6,0.2 -4.2,0.3 -1.4,0.1 -3,0.4 -4.5,0.5 -1.7,0.1 -3.3,0.3 -4.9,0.4 -3,0.2 -5,0.6 -6.5,0.6 -3.3,0 -4.6,0.3 -4.6,0.3 0,0 -4,0.1 -6.5,1.1 -1,0.4 -2,0.5 -2.5,0.6 -1,0.1 -1.1,-0.3 -1.3,-1 C 69,76.4 69,75.4 69.6,75 c 0.4,-0.2 0.3,-1.1 0.2,-2.2 -0.4,-0.5 -2,-0.3 -2.8,-0.1 -0.7,0.2 -1.3,-0.1 -1.3,-0.1 l 1,2.3 c 0,0 -0.6,-0.5 -1.3,-1.5 -0.4,-0.6 -0.8,-1.5 -1.1,-2.2 -0.4,-0.8 -0.6,-1.6 -0.5,-2.2 0.1,-0.7 0.5,-1.1 0.9,-1.7 0.5,-0.7 0.9,-1.3 0.9,-1.8 0.1,-0.9 -0.1,-7 -0.1,-7 0,0 -1.4,-1 -1.5,-1.3 0,-0.2 -0.1,-2.4 -0.2,-3.5 -0.1,-0.8 0.1,-1.7 0.1,-2.1 0.1,-1.5 0.7,-6.5 0.4,-6.6 -0.1,-0.1 -4.4,3.6 -4.5,3.7 -0.1,0.1 0,0.9 0,1.6 0,0.1 -0.1,0.3 -0.1,0.3 v 1.1 c 0,0 -0.2,0.7 -0.6,1.2 -0.3,0.3 -0.6,1.7 -0.6,1.7 l -0.2,1.8 c 0,0 -0.4,-0.8 -0.3,-1.6 0,-0.2 0.1,-0.4 0.1,-0.7 0,-0.4 -0.1,-0.9 -0.1,-1.3 0,-0.6 0.2,-1.6 0.3,-1.9 0,0 -0.4,0.6 -0.6,1.3 -0.2,0.8 -0.4,0.8 -0.4,1.5 0,0.4 -0.4,2.9 -0.6,5 -0.1,1.9 -0.1,2.4 -0.1,3 0,0.6 -1,4.1 -1.2,5.6 0,0.4 -0.2,0.8 -0.2,1.7 -0.2,2 -0.2,4.5 -0.2,5.7 0,0.2 0.1,0.2 0.1,0.4 0,0.4 -0.1,0.9 -0.1,0.9 0,0 0,-0.8 -0.1,-0.9 -0.4,-0.4 -0.6,-2.2 -0.7,-2.2 -0.1,0 -1.1,0.7 -1.3,1.3 -0.3,0.6 1.3,3.6 1.3,4.9 0,0.2 0.4,0.1 0.7,0.3 0.2,0.1 0.2,0.3 0.5,0.3 0.5,0 0.6,0.1 1,0.3 0.4,0.2 4.7,0.2 4.7,0.2 0,0 1.2,0.1 1,0.2 -0.2,0.1 -1.2,0.2 -1.7,0.2 -0.6,0.1 -4.2,0.3 -6.7,0.5 -1,0.1 -1.9,0.3 -2.3,0.3 -2.8,0.4 -4.5,0.5 -5.8,0.5 -0.8,0 -2,0.1 -3.3,0.2 -1.1,0 -2.3,0.2 -3.4,0.3 -1.1,0.1 -2.2,0 -3.2,0 -1.9,0 -3.5,0.3 -3.5,0.3 l -3.1,2.2 c 0,0 -0.1,0.4 -0.6,0.4 -1.1,0.1 -2.8,-0.2 -3.5,-0.3 -0.3,0 -1.9,0.4 -4.1,0.8 -0.7,0.1 -1.5,0.4 -2.3,0.6 -1,0.2 -1.9,0.4 -2.9,0.6 -3.1,0.8 -6,1.6 -6.8,1.8 -1.6,0.4 -3.4,1 -3.4,1 0,0 -2.6,0.7 -4.1,1.9 -0.7,0.5 0.3,0.4 0.8,0.5 0.4,0.1 2,0.1 2.5,0.2 0.4,0.1 1,0 1.5,0 0.5,-0.1 1.1,-0.2 1.9,-0.3 0.8,-0.1 22.3,-3 24.3,-3.2 0.7,-0.1 3.4,-0.6 4.3,-0.5 0.8,0.1 1.6,0.2 2.3,0.3 0.7,0 3.2,0 4.1,-0.3 0.7,-0.3 1.5,-0.4 2.3,-0.5 0.6,-0.1 5.7,-0.4 5.7,-0.4 0,0 0.2,-0.4 0.5,-0.2 0.3,0.2 -0.2,1 -0.5,1.3 -0.2,0.2 -0.3,0.8 -0.1,1.1 l 0.1,1.3 c 0,0 0.1,0 0.6,0 0.4,0.1 0.9,-0.1 1.5,0.7 0.6,0.8 1.4,0.1 1.9,0 0.4,-0.1 0.7,-0.4 0.7,-0.4 l 0.3,-0.2 c 0,0 -0.5,0.9 -0.6,1.2 -0.2,0.8 -0.5,1 -0.8,1.3 -0.3,0.3 -0.2,1 0.4,1.1 0.3,0 0.9,0.1 0.9,0.1 0,0 -0.2,1.1 -0.2,1.7 0,0.6 -0.2,6.1 -0.2,6.1 0,0 -0.1,1.1 0.8,2.4 0.7,1.1 1.7,2.9 2.1,3.5 0.5,0.8 0.6,1.3 0.5,1.8 0,0.1 -0.2,0.2 -0.3,0.4 -0.1,0.2 0,0.5 -0.1,0.7 -0.4,0.8 -0.8,1.5 -0.4,3.2 0.1,0.4 0.1,1.7 0.4,3.2 0.3,2 0.8,4.6 1.1,6.8 0.2,1.1 0.3,2.2 0.4,3.1 0.1,0.9 0.3,1.4 0.3,1.9 0.1,1 0.1,2.2 0.3,3.4 0.4,1.9 0.9,3.8 1.3,4.9 0.7,1.8 1.6,4.6 2.5,6.6 0.2,0.4 0.3,0.9 0.5,1.4 0.3,0.7 0.6,1.1 0.9,1.7 0.1,0.3 0.2,0.6 0.3,0.9 0.3,0.4 0.9,1.1 1.3,1.4 1.5,1.3 2.3,2.2 2.6,2.6 0.1,0.1 0.1,0 0.1,-0.2 0.1,-0.5 0,-1.7 -0.1,-3.3 -0.2,-2 -0.9,-4.9 -1.3,-6.1 -0.5,-1.1 -0.5,-1.5 -0.6,-2.4 -0.1,-0.9 -0.8,-7.7 -1.5,-9.7 0,-0.1 -0.2,-0.4 -0.2,-0.7 0.1,-1.5 0.8,-5.3 0.8,-7.6 0,-1.2 -0.1,-4.4 -0.4,-7.3 -0.2,-1.6 -0.5,-3.3 -0.7,-4.8 -0.3,-2.1 -0.5,-4.1 -0.6,-4.6 -0.1,-0.7 0.4,-2.8 0.8,-4.2 0.2,-0.6 0.6,-1.1 1,-1.3 0.2,-0.1 0.3,-0.3 0.5,-0.3 0.1,0 0.3,-0.1 0.5,0 0.1,0 0.2,0.2 0.3,0.2 0.2,0 0.5,-0.3 0.7,-0.4 0.2,-0.1 0.4,-0.2 0.7,-0.4 0.2,-0.2 -0.1,-0.7 -0.2,-1.5 -0.3,-2.3 -0.6,-5.4 -0.7,-5.5 -0.4,-0.2 -1,-0.4 -1,-0.4 0,0 0.3,-3.7 0.7,-4.3 0.4,-0.7 1.2,-2.5 5.5,-3.5 0.9,-0.2 1.6,-0.5 2.5,-0.7 0.8,-0.2 1.5,-0.3 2.7,-0.6 0.7,-0.2 1.5,-0.1 2.4,-0.2 1.1,-0.1 2.2,-0.2 3.2,-0.2 4.7,0 16.5,-1.5 19.7,-1.6 1.6,-0.1 5.3,-0.2 8.4,-0.6 2.2,-0.3 5,-0.7 6,-0.8 2.1,-0.2 3.9,-0.3 4.3,-0.3 0.1,-0.1 0,-0.3 0.4,-0.3 0.3,0 0.3,0 1,-0.2 0.4,-0.1 1.6,0 2.8,-0.1 1,0 2.9,-0.3 5.1,-0.5 1.3,-0.1 2.7,-0.2 4.1,-0.3 2.7,-0.8 3.8,-0.4 6.7,-0.5 z m 22.4,0 c 1.6,0 2.3,0.4 2.5,0.7 0.2,0.3 2.5,0.4 2.5,0.4 0,0 0,0.1 -0.8,0.2 -0.8,0 -1.6,0.1 -1.6,0.1 0,0 -1.7,-0.6 -3,-0.5 L 165.5,78 c 0,-0.1 0.3,-0.7 0.6,-0.7 z"
       id="path93" /><path
       class="st0"
       d="m 216.5,104.3 c -0.1,-0.6 -0.5,-1.3 -1,-2.3 -0.5,-0.9 -0.8,-1.8 -1.1,-2.4 -0.5,-1.1 -0.6,-1.4 -0.6,-1.4 0,0 -0.1,-0.5 -0.6,-0.9 -0.1,-0.1 -0.2,-0.2 -0.5,-0.3 -0.3,-0.1 -0.7,-0.2 -1.1,-0.2 -0.6,0 -0.8,-0.5 -0.8,-0.5 0,0 0,-1 0,-1.9 0,-0.4 -0.4,-0.4 -0.5,-0.5 -0.1,-0.3 -0.8,0.1 -2.3,-0.4 0,0 -1,-0.5 -1.3,-0.4 -0.6,0.2 -2.3,1.6 -2.8,2.2 -0.5,0.6 -1.4,1.8 -3.7,3.4 -2,1.3 -3,2.2 -4.1,4.1 -1,1.7 -1.9,3.7 -1.7,5.2 0.2,1.8 0.9,2 0.3,4.2 l -0.4,-1.7 c 0,0 -0.4,-0.6 -0.5,2.1 -0.2,3 0.3,6.7 0.3,6.7 0,0 0.2,0.8 0.8,1.7 0.2,0.4 0.5,1.1 0.8,2.1 0.2,0.6 0.6,1.3 0.8,2 0.5,1.4 0.9,2.6 0.9,3.1 0.1,1 1.5,2.4 1.8,2.6 0.1,0.1 0.6,0.5 1.2,1.1 0.9,0.9 2.2,2 3.1,2.2 0.6,0.2 1.5,0.6 2.6,0.8 0.7,0.1 1.5,0.1 2.2,0 0.7,-0.1 1.5,-0.2 2.2,-0.6 2.2,-1.3 4,-2.2 4.8,-2.5 0.5,-0.2 -0.1,-0.4 -0.1,-0.4 l -1.2,-1.1 c 0,0 -1.9,0.1 -3.3,-0.4 -1.4,-0.5 -3.7,-2.1 -3.7,-2.1 l -2.6,-0.4 -0.9,-0.1 c 0,0 0.8,-0.4 1.1,-0.5 0.3,-0.1 0.9,-0.3 0.9,-0.3 0,0 -0.5,-0.6 -1,-1.3 -0.8,-1.1 -1.7,-3.6 -1.6,-5.6 0,-0.6 0.3,-1.4 0.6,-1.7 0.2,-0.2 0.4,-0.3 0.7,-0.4 0.2,-0.1 0.4,-0.1 0.6,-0.2 0.4,-0.1 0.8,-0.3 1.2,-0.4 1.3,-0.3 0.8,-1.5 1.5,-1.5 0.4,0 0.2,0.8 1.1,0.6 0.9,-0.2 3.5,-1.4 6.5,-4.2 1,-0.9 1.5,-1.7 1.7,-2.3 0.3,-0.8 0.3,-1.8 0,-2.8 -0.6,-1 -0.2,-1.5 -0.3,-2.4 z m -13.4,20.5 c 0.2,0.2 -0.5,-0.3 -0.5,-0.3 -0.8,-0.3 -1.1,-0.5 -1.2,-1.2 -0.1,-0.9 -0.1,-1.6 -0.1,-2.1 -0.1,-0.9 -0.2,-1.2 0.1,-1 0.1,0.1 0.2,0.7 0.5,2.2 0.1,0.3 0.2,0.7 0.3,1.2 0,0.3 0.4,0.1 0.5,0.4 0,0.4 0.2,0.7 0.4,0.8 z m 6.6,-20.5 c -0.1,1.6 0,2.9 -0.7,4.5 -0.4,0.9 -1.4,2.5 -3,2.9 -0.7,0.2 -1.6,0.4 -2.3,0.9 -0.4,0.2 -0.2,0.8 -0.3,1 0,0 -0.7,-3.8 -0.4,-5.3 0.1,-0.3 0.2,-0.9 0.3,-1.4 0.2,-0.7 0.4,-1.6 0.7,-2.4 0.5,-1 0.3,-1.3 0.6,-2 0.4,-0.9 0.9,-1.9 0.9,-1.9 0,0 -0.4,0 -0.8,0.7 -0.4,0.7 -0.8,1 -1.2,1.7 -0.3,0.6 -0.5,1.2 -0.8,1.7 -0.3,0.7 -0.6,1.3 -0.9,1.7 0,0 1,-2.6 1,-3.3 0,-0.7 1.4,-3.2 1.8,-3.3 0.4,-0.1 1.1,-0.4 1.7,0.1 0.3,0.3 1,0.9 1.6,1.4 0.7,0.5 1.4,1 1.4,1.1 0.6,0.2 0.5,1 0.4,1.9 z"
       id="path95" /><path
       class="st0"
       d="m 137.3,59.2 c 0.5,0.5 1.2,1.1 2,1.8 0.6,0.5 1.5,1.1 2.1,1.6 1,0.9 2.1,1.8 2.1,1.8 0,0 0.5,0 1.1,0.1 0.7,0.2 1,0.3 1.7,0.3 0.4,-0.6 0.8,-0.9 0.8,-1.2 0,-0.3 0,-0.8 0.2,-1.1 0.1,-0.3 0.3,-0.5 0.7,-0.9 0.6,-0.6 1.3,-1.5 1.3,-1.5 0,0 0.1,-0.7 0.1,-1.1 0,-1.2 1.7,-2.3 1.7,-2.3 0,0 0.4,1 0.5,1.7 0.1,0.5 0,1.5 0.4,2.4 0.2,0.5 0.7,0.8 1.3,1.1 0.5,0.3 0.9,0.6 0.9,0.6 l 3.5,1.5 c 0,0 0.8,-0.1 1.5,-0.1 0.4,0 1.1,0 1.4,0 0,0 -0.1,-0.3 -0.1,-0.3 0.1,-0.3 0,-0.2 -0.5,-0.6 -1,-1 -2.8,-2.3 -3.7,-3.3 -0.1,-1 -0.4,-1 -0.4,-1.6 0,0 0.4,0.6 0.7,1.2 0.2,0.6 1.7,1.3 1.7,1.3 0,0 -0.2,-0.4 -0.7,-1.7 -0.6,-1.3 -2.3,-5 -1.9,-10.5 0.5,-6 1,-9.9 1,-9.9 l -0.4,1.1 c 0,0 -0.4,-0.7 0.2,-1.6 0.1,-0.2 0.2,0 0.3,-0.4 0.1,-0.5 0.1,-0.6 0.3,-1 0.2,-0.6 0.6,-1.3 0.8,-2 0.2,-0.6 0.3,-1.5 0.4,-2.2 0.2,-0.9 0.4,-1.3 0.3,-2.5 0,0 -0.1,-0.3 -0.6,-0.2 -0.6,0.1 -0.6,-0.1 -0.6,-0.1 L 156,28.7 c 0,0 -0.3,-0.1 -0.8,0.5 -0.1,0.2 -0.3,0.3 -0.6,0.7 -0.4,0.6 -0.9,1.8 -1.4,2.5 -0.2,0.3 -0.6,0.4 -0.8,0.6 -0.3,0.4 -0.4,0.8 -0.6,0.9 -0.1,-0.4 0.3,-0.7 0.5,-1.2 0,-0.1 0.2,-0.3 0.2,-0.3 l 0.1,-0.6 c 0,0 -0.1,0 -0.5,0.1 0,0 -2.3,1 -3.9,1.5 -1.5,0.5 -3.1,0.6 -3.8,1.4 -0.7,0.8 -1.1,1.3 -1.7,1.6 -0.6,0.3 -1.2,1.9 -1.3,2.2 h 1.4 L 142,39 c 0,0 0,0.3 -0.4,1.1 -0.2,0.4 -0.6,1.1 -0.8,1.7 -0.5,1.2 -0.9,1.7 -1.3,2.8 -0.1,0.2 -0.2,0.6 -0.3,0.8 -0.1,0.2 -0.3,0.4 -0.4,0.7 -0.3,0.8 -0.7,1.6 -1,2.3 -0.5,1.1 -1,2 -1,2.1 -0.1,0.2 -0.4,1.8 -0.4,3.5 0,0.4 0,1 0,1.4 -0.1,0.8 -0.3,1.4 0.3,2.5 0.2,0.4 0.2,0.9 0.6,1.3 z m 13.4,-13.7 c 0,0 0,0.8 0.1,1.6 0.1,0.5 0.3,0.8 0.4,1.4 0.1,0.8 0,1.7 0,1.9 -0.3,0.7 -1.5,2.7 -1.5,2.7 0,0 0.5,-1.9 0.8,-2.8 0.3,-1.2 0.2,-4.8 0.2,-4.8 z m -8.9,3.4 1.4,1.6 0.1,-3 c 0,0 2.2,-3.9 3.4,-6.2 1.3,-2.3 1.6,-2.2 1.6,-2.2 l 1.1,-0.4 c 0.1,0 0.2,-0.2 0.3,-0.2 0.1,0.2 -0.1,0.9 0,1.4 0.2,2.3 0.1,7.2 0.2,9.6 0,0.8 -0.3,1.5 -0.5,2.1 -0.2,0.5 -0.3,1.1 -0.5,1.5 -0.7,1.3 -1.6,1.9 -2.1,2.1 -0.7,0.4 -2.4,0.4 -2.4,0.4 0.7,-0.2 1.7,-0.6 1.7,-0.6 0,0 -0.1,-0.4 -0.2,-0.4 -0.3,-0.2 -0.3,-0.8 -0.3,-0.8 -0.4,-0.2 -1.2,-1 -2,-1.9 -0.3,-0.4 -0.6,-0.8 -0.9,-1.2 -0.2,-0.3 -0.5,-0.6 -0.6,-0.9 -0.3,-0.5 -0.3,-0.9 -0.3,-0.9 z m -4.8,8.3 c 0,-0.4 0.3,-0.8 0.3,-1.3 0,-0.4 -0.2,-0.7 -0.2,-1 0,-0.3 0,-1.4 0,-1.4 0,0 0.2,1.1 0.2,1 l 0.5,2.3 c 0,0.2 0.1,0.4 0.2,0.6 0.1,0.3 0.2,0.6 0.4,0.9 0.5,0.8 1.2,1.4 1.4,1.6 0,0 0.3,0.3 0.3,0.3 0.1,0.1 -0.5,-0.1 -0.7,-0.2 -0.1,-0.1 -0.4,-0.3 -0.8,-0.6 -0.2,-0.2 -0.4,-0.1 -0.6,-0.3 -0.4,-0.3 -0.8,-0.9 -0.8,-1.1 C 137,57.8 137,57.5 137,57.2 Z"
       id="path97" /><path
       class="st0"
       d="m 117.9,38.8 c -0.1,0.4 -0.3,0.8 -0.4,1.4 -0.2,0.9 -0.4,2 -0.7,2.9 -0.3,1 -0.6,1.7 -0.6,1.9 -0.1,0.2 -0.1,1.9 -0.2,3 -0.1,1.1 0.3,1.5 0.4,2.5 0.1,1.1 -0.1,2.8 0,3.4 0.2,1.7 1.5,3.6 2,4.6 0.4,1 -0.1,1.7 0.5,2.7 0.3,0.5 0.8,1.3 1.5,2.2 0.6,0.8 0.6,1.1 1,1.5 0.3,0.3 1.2,0.6 1.8,0.8 1.1,0.3 3,0.8 3,0.8 0,0 0.2,0 0.5,-0.2 0.2,-0.2 1.6,-0.2 1.9,-0.3 0.4,-0.1 3.8,-1.9 4.7,-2.1 0.1,0 0.4,-0.2 0.4,-0.2 0,0 0,-0.2 0,-0.4 -0.1,-0.1 -0.6,-0.1 -0.7,-0.1 -0.4,-0.2 -0.6,-0.3 -0.8,-0.3 -0.3,0 -0.6,0.1 -1.4,0.2 -1.9,0.2 -3,-0.6 -3.5,-0.9 -0.1,-0.1 -0.5,-0.3 -0.8,-0.6 -0.3,-0.3 -0.6,-0.7 -1,-1.2 -0.3,-0.4 -0.7,-0.8 -1,-1.2 -0.5,-0.7 -0.8,-1.4 -1,-2 -0.2,-0.7 -0.5,-1.2 -0.5,-1.7 -0.1,-0.6 0,-1.1 0.2,-1.4 0.1,-0.2 0.2,-0.4 0.5,-0.5 0.3,-0.2 0.6,-0.3 0.9,-0.4 0.4,-0.3 0.8,-0.5 1.3,-0.6 0.7,-0.1 2.1,-0.1 2.1,-0.1 0,0 0.7,0 1.1,-0.3 0.4,-0.2 0.6,-0.7 0.9,-1 0.5,-0.5 1,-1.2 1.5,-1.6 0.4,-0.3 0.8,-0.6 1.1,-0.7 0.5,-0.2 2,-3.1 2.2,-3.9 0.1,-0.8 0,-2.5 0,-3.2 0,-0.7 1,-3.3 1,-4.4 0,-0.8 -0.2,-2.1 -0.6,-3.1 -0.1,-0.2 -0.2,0 -0.4,-0.2 -0.2,-0.2 -0.3,-0.5 -0.5,-0.6 -0.7,-0.5 -1.2,-1 -1.6,-1.3 -0.3,-0.2 -0.5,0 -0.7,-0.1 -0.2,-0.1 -0.2,-0.1 -0.4,-0.1 -1,0 -0.8,0.1 -1.4,-0.5 -0.5,-0.6 -0.8,-1.4 -1.6,-1 -0.3,0.2 -0.8,0.4 -1.4,0.7 -1,0.5 -2.2,1.3 -2.6,1.9 0,0 -0.1,0.4 -0.2,1.1 -0.1,0.7 -0.8,0.3 -1,0.1 -0.2,-0.2 -0.6,0 -0.6,0 0,0 -0.3,0.3 -0.4,0.6 -0.1,0.3 -1.5,1.9 -2.5,2.4 -1,0.5 -1.6,1 -1.6,1 0,0 -0.3,-0.1 -0.4,0.5 z m 6.5,9.8 c -0.5,0.1 -0.9,0.5 -1.5,0.7 -0.2,0.1 -0.4,0.1 -0.6,0.1 -0.2,0 -0.2,-0.1 -0.3,-0.2 -0.4,-0.1 -0.3,-0.3 -0.3,-0.3 0.2,-0.2 0.6,-0.4 0.9,-0.4 0.4,0 0.4,0.1 0.7,0.1 0.3,-0.1 0.7,-0.2 0.9,-0.3 0.2,0 0.6,0 0.6,0 0,0 -0.2,0.3 -0.4,0.3 z m -2.1,-6.3 c 0.4,-0.6 0.9,-1 1.3,-1.6 0.3,-0.4 0.6,-0.9 1,-1.6 0.4,-0.6 0.8,-1.3 1.3,-1.9 0.6,-0.8 1.3,-1.5 1.5,-1.6 0.4,-0.3 0.7,-0.2 0.7,-0.2 0,0 0.1,0.5 0.2,0.8 0.1,0.4 0.2,1.3 0.3,2.4 0.1,0.5 0.2,1.3 0.3,1.8 0.5,2.2 0,2.7 -0.1,4.8 0,0.6 -0.4,0.8 -0.7,1.2 -0.2,0.3 -0.4,0.6 -0.7,0.9 -0.3,0.2 -1,0.3 -1.9,0.4 -0.9,0.1 -1.7,0.1 -1.9,0.2 -0.1,0.1 -0.5,0.3 -0.7,0.2 -0.6,-0.5 -0.5,-0.2 -0.8,-0.4 -0.4,-0.3 -0.6,-0.6 -0.8,-1.3 -0.2,-1.8 0.2,-2.9 1,-4.1 z"
       id="path99" /><path
       class="st0"
       d="m 197.3,91.3 c 0.3,-0.2 1.1,-0.5 1.4,-0.7 0.4,-0.2 0.5,-0.4 1,-0.6 0.4,-0.4 0.8,-1 1.3,-1.6 0.2,-0.2 0.4,-0.4 0.6,-0.6 0.2,-0.2 0.3,-0.3 0.5,-0.5 0.2,-0.3 0.4,-0.6 0.6,-0.9 0.3,-0.4 0.4,-0.2 0.7,-0.7 l 0.9,-1.6 c 0,0 0,0.2 -0.1,0.6 -0.1,0.4 -0.4,0.9 -0.6,1.5 0,0.2 0.2,0.4 0.1,0.6 0,0.3 -0.3,0.4 -0.3,0.8 0,0.4 0,0.9 0,1.6 0,0 -0.1,0.4 0.7,-0.5 0.7,-1 1.7,-1.7 2.9,-2 0.8,-0.3 2.5,-3.1 3.4,-5.6 0.1,-0.4 0.2,-0.9 0.2,-1.2 0.1,-0.4 0.2,-0.7 0.2,-1.1 0.1,-0.7 0.1,-1.5 0.2,-2.2 0,-0.6 0,-1.2 0,-1.7 0,-0.6 0.1,-1.2 0.1,-1.7 0,-1 -0.1,-1.8 -0.3,-2.2 -0.4,-1.1 0.2,-1.3 0.2,-2.4 0.1,-1.2 -0.1,-2.5 -0.1,-5 0,-1.7 0.1,-3.6 0.1,-5.3 -0.1,-2.9 -0.2,-5.4 -0.4,-5.9 -0.3,-0.6 -0.3,-1.5 -0.3,-2.2 0,-0.6 0,-1.1 0.1,-1.4 0.4,-0.5 0.7,-0.6 0.7,-1.3 0,-0.7 -0.1,-1.2 -0.1,-1.2 0,0 -0.2,-0.3 -0.7,-1.1 -0.3,-0.4 -0.2,-0.5 -0.3,-0.8 0,-0.3 -0.2,-0.3 -0.2,-0.5 0,-0.2 0,-0.5 -0.2,-0.8 -0.5,-0.7 -1.8,-2.8 -1.8,-2.8 0,0 2.3,2.9 2.6,3.3 0.3,0.4 0.5,1.2 0.7,1.4 0.1,0 0.3,-0.4 0.4,-1.1 0.3,-1.5 0.1,-4.1 0.1,-5.9 0,-1.1 0,-0.9 0,-0.9 l 2.5,0.2 2.5,-0.2 3.4,-0.1 2.1,0.1 2.3,-0.1 c 0,0 -0.4,-0.5 -0.7,-0.8 -0.7,-0.1 -2.3,-1.1 -3,-1.4 -0.4,-0.1 -0.5,-0.4 -0.9,-0.5 -0.6,-0.2 -1.4,-0.3 -2.2,-0.5 -1.8,-0.5 -3.8,-1.4 -5.4,-2.1 -0.2,-0.1 -0.3,0 -0.4,-0.1 -0.2,-0.1 -0.3,-0.2 -0.3,-0.2 v 2 c 0,0 -0.2,-0.6 -0.3,-1.4 0,-0.3 -0.3,-0.6 -0.3,-1.2 0,-0.4 0.1,-1.6 0.1,-2.1 0,-0.3 0,-0.6 0,-1 0,-1.7 -0.1,-1.6 -0.1,-3.2 -0.1,-2.5 -0.3,-4.3 -0.4,-6.6 0,-2.2 0.1,-3.9 0.1,-3.9 0,0 0.2,-2.8 0.4,-3.8 0.1,-0.3 0.1,-0.7 0.3,-0.9 0.1,-0.2 0.4,-0.2 0.6,-0.3 0.2,-0.1 0.4,0.1 0.6,0.1 0.3,0 0.7,1 1.1,1.6 0.6,1 0.9,2.4 0.9,2.4 0,0 0,1.9 -0.5,3 -0.6,1.1 -1.3,1.4 -1.8,2 -0.3,0.3 -0.3,0.5 -0.3,0.5 0,0 0.2,0 0.5,0.1 0.3,0.1 0.5,0.4 1.3,0.4 1.2,-0.1 1.2,-0.2 2.6,-1.5 1.5,-1.5 2.8,-3 2.8,-3 0,0 1.1,-1 1.1,-1.7 0.1,-1.3 0.2,-2.2 0.1,-2.5 -0.1,-0.2 -0.9,-0.1 -1.1,-0.2 C 219,10 218,8.5 216.4,5.7 c -0.7,-1.3 -1.2,-2.6 -1.8,-3.1 -0.2,-0.2 0,-0.3 -0.2,-0.4 -0.4,-0.1 -0.6,-0.3 -1,-0.4 -0.6,-0.1 -1.8,-0.6 -2.7,-0.9 -0.5,-0.2 -0.8,-0.3 -1.2,-0.4 -0.4,-0.1 -0.7,-0.1 -0.9,0 -0.1,0.1 -0.8,0.7 -1.5,1.6 -0.4,0.4 -0.7,1 -1.2,1.5 -0.9,1 -1.8,1.9 -2.1,2.4 -0.1,0.2 -0.3,0.3 -0.3,0.4 -0.1,0.5 0.2,1.1 0,1.7 -0.3,0.7 -1.1,1.8 -1.3,2.3 -0.1,0.2 -0.2,0.7 -0.2,1.2 0,0.6 0.1,1.2 0.3,1.7 0.4,1.2 0.3,2 0.3,3 0,1.1 0.6,2.6 0.7,5.6 0.1,3.2 0.1,3.5 0.8,4.9 0.7,1.5 1.1,2.9 1,2.9 0,0 -0.2,0 -0.7,0.1 -1.4,0.2 -5.4,0.6 -5.4,0.6 l -0.5,0.1 0.4,0.5 c 0,0 1.2,0.8 2,1.3 0.3,0.2 0.7,0.4 1,0.6 0.6,0.4 0.9,0.5 1.1,0.7 0.3,0.2 1.5,1.2 2.7,2.7 0.1,0.2 0.1,0.3 0.2,0.5 0.1,0.3 0.4,0.5 0.4,0.8 0,0 -0.9,-0.8 -1,-0.8 -0.1,0.1 -0.1,4.6 -0.1,10.4 0,0.1 0.1,0.1 0.1,0.2 0.1,5.8 0.1,11.7 0.1,11.7 0,0 0.9,2.8 0.5,3.7 0,0.1 -0.1,0.3 -0.1,0.4 -0.1,0.1 -0.1,0.2 -0.2,0.4 -0.1,0.2 -0.1,0.3 -0.2,0.5 -0.1,0.3 -0.3,0.6 -0.3,0.6 0,0 0,1.6 -0.3,4.3 -0.2,2 -0.9,4.7 -1.2,6.1 -0.1,0.3 0.1,0.5 0,0.7 0,0 0.8,-0.2 1.1,-3.2 0.1,-1 0.1,-1.3 0.2,-1.4 0.1,-0.3 0,0.3 0,0.5 0,0.2 -0.3,2.8 -0.3,4 0,0.4 -0.3,0.7 -0.4,1 -0.1,0.4 -0.2,0.7 -0.3,0.9 -0.2,0.3 -0.5,0.5 -0.6,0.7 -0.1,0.1 -0.1,0.4 -0.1,0.5 -0.1,0.1 -0.3,0.1 -0.4,0.2 -0.7,0.9 -1.3,1.6 -1.3,1.6 0,0 -1.3,2.6 -2,3.8 -0.4,0.7 -0.8,1.3 -2.2,3.3 -0.3,0.4 -1.6,1.5 -1.8,1.8 -0.6,0.7 -1.2,0.7 -1.3,0.8 -0.3,0.2 -0.7,0.6 -0.8,1 -0.1,0.4 2.8,0.4 2.8,0.4 0,0 0.7,-0.2 1.1,-0.4 z m 12.1,-77.2 0.1,1.4 c 0.1,1.5 0.4,2.8 0.5,3.7 0.1,1.7 0,3.3 0,3.4 -0.1,0.1 -0.3,-2 -0.4,-2.4 -0.1,-0.4 -0.5,-0.9 -0.7,-1.7 -0.2,-1 0.5,-4.4 0.5,-4.4 z"
       id="path101" /></g></svg>
